<ttFont>
          <CharString index="0">
            rmoveto
            -106 callsubr
            212 hmoveto
            -106 callsubr
            endchar
          </CharString>
          <CharString index="1">
            49 2 29 27 -99 callsubr
            hvcurveto
            return
          </CharString>
          <CharString index="2">
            360 -14 rmoveto
            232 55 166 213 211 -55 168 -232 -233 -53 -168 -211 -213 53 -166 233 hvcurveto
            72 vmoveto
            -161 -37 137 170 170 37 137 161 160 39 -137 -170 -170 -39 -137 -160 hvcurveto
            return
          </CharString>
          <CharString index="3">
            302 56 -69 callsubr
            39 callsubr
            -112 -118 -118 -24 -112 -138 hvcurveto
            -70 vmoveto
            201 47 13 callsubr
            155 -47 145 -201 -68 callsubr
            hvcurveto
            return
          </CharString>
          <CharString index="4">
            1 callsubr
            hintmask 10111100
            -96 callsubr
            hintmask 01111100
            -83 callsubr
            hintmask 10111100
            -92 callsubr
            return
          </CharString>
          <CharString index="5">
            -93 callsubr
            -193 -46 -22 callsubr
            -194 62 -106 181 vhcurveto
            -5 530 -73 callsubr
            return
          </CharString>
          <CharString index="6">
            -13 callsubr
            -104 callsubr
            return
          </CharString>
          <CharString index="7">
            hstem
            11 callsubr
            vstem
            -105 callsubr
            return
          </CharString>
          <CharString index="8">
            27 -2 30 -49 -47 -2 -30 -27 -27 2 -29 47 return
          </CharString>
          <CharString index="9">
            255 -33 callsubr
            -238 -730 rlineto
            87 hlineto
            71 220 rlineto
            278 hlineto
            71 -220 rlineto
            87 hlineto
            -239 730 rlineto
            -58 -78 rmoveto
            116 -362 rlineto
            -233 hlineto
            return
          </CharString>
          <CharString index="10">
            hstem
            54 85 vstem
            297 -102 callsubr
            return
          </CharString>
          <CharString index="11">
            155 409 rmoveto
            67 13 44 40 74 hhcurveto
            64 54 -23 -107 hvcurveto
            -57 vlineto
            -149 -24 rlineto
            -167 -27 -35 -62 -83 vvcurveto
            -82 39 -65 108 97 72 58 45 42 vhcurveto
            return
          </CharString>
          <CharString index="12">
            rmoveto
            116 96 117 -96 36 36 -134 153 rlineto
            -37 hlineto
            -134 -153 rlineto
            endchar
          </CharString>
          <CharString index="13">
            hstem
            91 88 339 88 vstem
            518 -33 callsubr
            -486 vlineto
            -164 -88 -20 -82 -80 -89 20 164 vhcurveto
            486 -88 -489 vlineto
            -231 138 -24 119 120 39 callsubr
            231 vhcurveto
            489 vlineto
            return
          </CharString>
          <CharString index="14">
            -57 callsubr
            -66 -6 -36 -49 -110 hhcurveto
            -119 -38 67 154 -1 -56 callsubr
            return
          </CharString>
          <CharString index="15">
            139 -378 rmoveto
            -62 -24 37 46 49 23 43 102 18 hvcurveto
            141 24 rlineto
            -120 vlineto
            -52 -48 -57 -45 -75 hhcurveto
            return
          </CharString>
          <CharString index="16">
            -90 callsubr
            endchar
          </CharString>
          <CharString index="17">
            rmoveto
            183 138 -54 64 -168 -156 rlineto
            return
          </CharString>
          <CharString index="18">
            rmoveto
            123 28 93 118 -64 callsubr
            hvcurveto
            -66 callsubr
            return
          </CharString>
          <CharString index="19">
            -20 hstem
            -98 callsubr
            return
          </CharString>
          <CharString index="20">
            52 3 32 29 29 -3 33 -52 -62 callsubr
            return
          </CharString>
          <CharString index="21">
            rmoveto
            -168 156 -54 -64 183 -138 rlineto
            endchar
          </CharString>
          <CharString index="22">
            -37 callsubr
            241 -20 -103 callsubr
            return
          </CharString>
          <CharString index="23">
            -53 -45 -61 -46 -75 hhcurveto
            -71 -34 34 80 hvcurveto
            402 -86 -408 vlineto
            -116 48 -62 121 89 69 49 50 47 vhcurveto
            return
          </CharString>
          <CharString index="24">
            22 -89 rlineto
            57 386 hlineto
            164 -91 36 -111 -116 -66 -61 -95 -21 vhcurveto
            return
          </CharString>
          <CharString index="25">
            -30 -60 36 -46 hhcurveto
            -40 -31 -24 -75 -21 hvcurveto
            57 -18 rlineto
            30 10 11 14 24 hhcurveto
            return
          </CharString>
          <CharString index="26">
            -72 callsubr
            408 70 -320 266 279 70 -279 254 300 70 vlineto
            return
          </CharString>
          <CharString index="27">
            hstem
            71 88 295 88 vstem
            280 415 rmoveto
            -83 23 -38 28 78 vvcurveto
            66 28 63 127 97 44 -55 -77 11 vhcurveto
            72 13 rlineto
            115 -17 -58 75 -150 hhcurveto
            -172 -70 -96 -108 -126 56 -44 131 -36 hvcurveto
            66 -19 rlineto
            87 -24 43 -27 -78 vvcurveto
            -66 -30 -63 -133 -104 -48 55 77 -11 vhcurveto
            -72 -13 rlineto
            -115 17 62 -75 156 hhcurveto
            179 72 96 107 127 -59 42 -134 38 hvcurveto
            return
          </CharString>
          <CharString index="28">
            -47 -36 callsubr
            241 -20 -97 callsubr
            return
          </CharString>
          <CharString index="29">
            -77 callsubr
            hintmask 11010110
            -82 callsubr
            hintmask 11101110
            -12 callsubr
          </CharString>
          <CharString index="30">
            rmoveto
            40 31 24 75 21 hvcurveto
            -56 18 rlineto
            -30 -10 -11 -14 -25 hhcurveto
            return
          </CharString>
          <CharString index="31">
            386 758 rmoveto
            12 -33 -32 5 -41 hhcurveto
            -81 -77 -32 -127 hvcurveto
            -44 -66 -59 66 34 callsubr
            132 59 -132 44 vlineto
            63 25 28 53 35 21 -5 -9 22 vhcurveto
            return
          </CharString>
          <CharString index="32">
            rmoveto
            -116 -96 -117 96 -36 -36 134 -153 rlineto
            37 hlineto
            134 153 rlineto
            endchar
          </CharString>
          <CharString index="33">
            333 rmoveto
            -74 19 -30 20 55 vvcurveto
            49 25 42 101 81 39 -41 -60 8 vhcurveto
            71 11 rlineto
            96 -16 -50 62 -131 hhcurveto
            -155 -59 -72 -91 -100 48 -39 112 -28 hvcurveto
            57 -14 rlineto
            80 -20 32 -19 -55 vvcurveto
            -49 -28 -42 -107 -87 -41 41 60 -9 vhcurveto
            -70 -11 rlineto
            -96 16 53 -62 137 hhcurveto
            160 62 72 91 99 -51 40 -116 28 hvcurveto
            return
          </CharString>
          <CharString index="34">
            72 callsubr
            30 -75 -100 6 hvcurveto
            -302 hlineto
            98 8 34 77 109 hhcurveto
            return
          </CharString>
          <CharString index="35">
            -3 callsubr
            106 -33 callsubr
            -730 return
          </CharString>
          <CharString index="36">
            5 callsubr
            241 -20 -101 callsubr
            return
          </CharString>
          <CharString index="37">
            3 callsubr
            241 -20 -100 callsubr
            return
          </CharString>
          <CharString index="38">
            rmoveto
            -139 -23 112 118 118 23 112 139 return
          </CharString>
          <CharString index="39">
            -201 -47 -22 callsubr
            -155 47 -145 201 return
          </CharString>
          <CharString index="40">
            hstem
            231 88 vstem
            319 254 rmoveto
            225 476 57 callsubr
            -179 -390 -179 390 57 callsubr
            225 -476 rlineto
            -254 88 vlineto
            return
          </CharString>
          <CharString index="41">
            60 vmoveto
            -61 -14 55 96 95 14 55 61 60 14 -55 -95 -96 -14 -55 -60 hvcurveto
            return
          </CharString>
          <CharString index="42">
            rmoveto
            -87 callsubr
            return
          </CharString>
          <CharString index="43">
            117 -28 93 -123 -123 -29 -93 -117 -118 29 -93 123 return
          </CharString>
          <CharString index="44">
            582 553 rmoveto
            -16 callsubr
            -238 54 -142 227 165 57 94 138 9 hvcurveto
            -72 4 rlineto
            -93 -3 -42 -71 -114 hhcurveto
            -165 -28 113 195 193 9 callsubr
            return
          </CharString>
          <CharString index="45">
            -50 -3 -33 -29 -29 3 -32 50 hvcurveto
            return
          </CharString>
          <CharString index="46">
            61 callsubr
            -19 -23 -20 vhcurveto
            27 -24 callsubr
            -4 33 -50 -48 -4 -33 -30 vhcurveto
            -163 hmoveto
            -53 callsubr
          </CharString>
          <CharString index="47">
            -9 callsubr
            275 42 callsubr
            hintmask 01111100
            -29 callsubr
            hintmask 10111100
            -84 callsubr
            hintmask 01111100
            return
          </CharString>
          <CharString index="48">
            60 56 rmoveto
            -28 14 -22 -21 vvcurveto
            -41 -19 -18 -22 -20 vhcurveto
            26 -30 rlineto
            15 11 92 69 100 vvcurveto
            28 -3 31 -51 -49 -3 -31 -28 vhcurveto
            return
          </CharString>
          <CharString index="49">
            14 callsubr
            106 71 callsubr
            -572 86 572 vlineto
            return
          </CharString>
          <CharString index="50">
            -14 rmoveto
            162 51 85 96 10 hvcurveto
            -71 4 rlineto
            return
          </CharString>
          <CharString index="51">
            hvcurveto
            390 21 hlineto
            149 -44 139 -192 return
          </CharString>
          <CharString index="52">
            222 -245 rmoveto
            304 817 rlineto
            -88 hlineto
            -164 -463 -169 463 rlineto
            -89 hlineto
            216 -576 -88 -227 rlineto
            return
          </CharString>
          <CharString index="53">
            33 callsubr
            275 -20 -94 callsubr
            return
          </CharString>
          <CharString index="54">
            0 callsubr
            -20 -22 -19 vhcurveto
            26 -24 callsubr
            -5 33 -50 -48 -3 -33 -30 vhcurveto
            endchar
          </CharString>
          <CharString index="55">
            -34 callsubr
            275 -88 callsubr
            return
          </CharString>
          <CharString index="56">
            rmoveto
            -194 105 -105 194 194 106 105 194 194 -106 106 -194 -194 -105 -106 -194 vhcurveto
            54 hmoveto
            162 79 89 166 166 80 -89 -162 -162 -80 -88 -166 -166 -79 88 162 vhcurveto
            return
          </CharString>
          <CharString index="57">
            -72 callsubr
            88 730 vlineto
            return
          </CharString>
          <CharString index="58">
            rmoveto
            36 4 17 20 44 hhcurveto
            42 19 -23 -31 -31 -20 -28 -31 -34 hvcurveto
            -147 -159 rlineto
            -47 281 61 -177 vlineto
            105 113 rlineto
            38 42 27 38 46 vvcurveto
            67 -43 47 -88 -88 -43 -39 -71 -7 vhcurveto
            return
          </CharString>
          <CharString index="59">
            -42 hlineto
            -7 -35 54 -10 rlineto
            34 -6 10 -12 -29 vvcurveto
            -24 -3 -19 -36 -37 -3 18 25 vhcurveto
            endchar
          </CharString>
          <CharString index="60">
            41 53 60 26 67 hhcurveto
            72 28 -33 -79 hvcurveto
            -404 86 406 vlineto
            118 -47 62 -122 return
          </CharString>
          <CharString index="61">
            rmoveto
            -75 7 48 -35 88 hhcurveto
            87 57 47 66 53 -29 30 -42 14 hvcurveto
            38 16 28 29 45 vvcurveto
            72 -47 50 -91 -83 -48 -36 -73 -5 vhcurveto
            67 -9 rlineto
            36 4 26 22 37 hhcurveto
            return
          </CharString>
          <CharString index="62">
            -399 -103 -21 239 -20 hstem
            -59 callsubr
            endchar
          </CharString>
          <CharString index="63">
            rmoveto
            60 hlineto
            215 801 rlineto
            -61 hlineto
            return
          </CharString>
          <CharString index="64">
            -25 callsubr
            255 -20 -81 callsubr
            return
          </CharString>
          <CharString index="65">
            rmoveto
            -52 51 -171 -188 rlineto
            -36 vlineto
            171 -188 52 51 -122 155 rlineto
            return
          </CharString>
          <CharString index="66">
            rmoveto
            52 -51 171 188 rlineto
            36 vlineto
            -171 188 -52 -51 122 -155 rlineto
            return
          </CharString>
          <CharString index="67">
            -38 callsubr
            -30 callsubr
          </CharString>
          <CharString index="68">
            rmoveto
            -58 21 -41 82 30 callsubr
            vhcurveto
            -48 callsubr
          </CharString>
          <CharString index="69">
            rmoveto
            -38 -6 34 23 24 6 33 38 41 6 -33 -24 -23 -6 -34 -41 hvcurveto
            -47 vmoveto
            return
          </CharString>
          <CharString index="70">
            -39 -14 66 -31 -2 callsubr
            return
          </CharString>
          <CharString index="71">
            -14 70 221 64 175 70 return
          </CharString>
          <CharString index="72">
            21 -21 27 callsubr
            return
          </CharString>
          <CharString index="73">
            3 21 35 callsubr
            440 -20 return
          </CharString>
          <CharString index="74">
            730 rmoveto
            return
          </CharString>
          <CharString index="75">
            75 77 43 76 hhcurveto
            28 29 -6 -15 27 hvcurveto
            68 vlineto
            14 -27 -30 5 -27 hhcurveto
            return
          </CharString>
          <CharString index="76">
            854 hmoveto
            79 43 60 -43 266 -115 vlineto
            -155 -270 rlineto
            -56 198 -79 vlineto
            -122 139 rmoveto
            122 215 rlineto
            -215 vlineto
            return
          </CharString>
          <CharString index="77">
            89 15 60 44 44 -15 61 -89 -86 -16 -61 -44 -44 16 -60 86 hvcurveto
            endchar
          </CharString>
          <CharString index="78">
            497 hmoveto
            57 572 -86 -417 hlineto
            return
          </CharString>
          <CharString index="79">
            23 callsubr
            251 470 -42 callsubr
            return
          </CharString>
          <CharString index="80">
            31 -13 20 22 vvcurveto
            39 18 21 22 19 vhcurveto
            -26 24 callsubr
            5 -33 50 48 3 33 30 vhcurveto
            endchar
          </CharString>
          <CharString index="81">
            rmoveto
            82 -329 79 405 -62 hlineto
            -21 -15 -37 -11 -41 -4 rrcurveto
            return
          </CharString>
          <CharString index="82">
            -65 0 70 266 70 254 70 return
          </CharString>
          <CharString index="83">
            -31 rlineto
            15 11 92 70 101 vvcurveto
            30 return
          </CharString>
          <CharString index="84">
            -20 -3 callsubr
            106 return
          </CharString>
          <CharString index="85">
            -145 -155 return
          </CharString>
          <CharString index="86">
            hstem
            54 506 rmoveto
            308 hlineto
            -320 -448 rlineto
            -58 436 66 -331 vlineto
            318 448 rlineto
            58 -411 vlineto
            return
          </CharString>
          <CharString index="87">
            hstem
            47 660 rmoveto
            357 hlineto
            -376 -604 rlineto
            -56 493 70 -386 vlineto
            376 604 rlineto
            56 -463 vlineto
            return
          </CharString>
          <CharString index="88">
            550 -33 callsubr
            -583 vlineto
            -348 583 rlineto
            -96 36 callsubr
            582 hlineto
            348 -582 rlineto
            96 730 hlineto
            return
          </CharString>
          <CharString index="89">
            -47 callsubr
            -80 -76 -36 -38 -52 vhcurveto
            return
          </CharString>
          <CharString index="90">
            140 286 rmoveto
            119 25 111 128 105 34 -44 -73 4 vhcurveto
            69 10 rlineto
            106 -8 -51 71 -156 hhcurveto
            return
          </CharString>
          <CharString index="91">
            115 -15 -59 76 -153 hhcurveto
            -227 -54 -141 -237 return
          </CharString>
          <CharString index="92">
            -21 572 -20 return
          </CharString>
          <CharString index="93">
            44 20 -25 -37 -35 -22 -33 -51 hvcurveto
            -23 -47 22 hlineto
            55 23 -31 -37 -37 -24 -22 -48 -44 -25 21 40 -3 hvcurveto
            return
          </CharString>
          <CharString index="94">
            hstem
            10 callsubr
            vstem
            return
          </CharString>
          <CharString index="95">
            31 59 -36 46 hhcurveto
            endchar
          </CharString>
          <CharString index="96">
            -45 -21 58 60 266 60 -25 60 266 60 -4 -20 hstemhm
            50 77 149 77 248 77 149 77 return
          </CharString>
          <CharString index="97">
            -54 vlineto
            20 -191 rlineto
            52 hlineto
            20 191 rlineto
            54 vlineto
            return
          </CharString>
          <CharString index="98">
            35 -14 70 -35 -15 callsubr
            return
          </CharString>
          <CharString index="99">
            396 68 -396 hlineto
            return
          </CharString>
          <CharString index="100">
            21 -15 callsubr
            return
          </CharString>
          <CharString index="101">
            22 callsubr
            275 -20 -50 callsubr
            return
          </CharString>
          <CharString index="102">
            rmoveto
            -402 169 rlineto
            -75 vlineto
            336 -137 -336 -137 rlineto
            -75 vlineto
            402 169 rlineto
            return
          </CharString>
          <CharString index="103">
            rmoveto
            402 -169 rlineto
            75 vlineto
            -336 137 336 137 rlineto
            75 vlineto
            -402 -169 rlineto
            return
          </CharString>
          <CharString index="104">
            17 callsubr
            vstem
            return
          </CharString>
          <CharString index="105">
            -21 516 70 return
          </CharString>
          <CharString index="106">
            -193 -43 -144 -156 -155 43 -145 193 156 51 74 110 9 hvcurveto
            return
          </CharString>
          <CharString index="107">
            -30 13 -21 -21 vvcurveto
            -40 -18 return
          </CharString>
          <CharString index="108">
            hstemhm
            53 85 266 86 return
          </CharString>
          <CharString index="109">
            -35 callsubr
            hstem
            return
          </CharString>
          <CharString index="110">
            96 -14 20 callsubr
            return
          </CharString>
          <CharString index="111">
            73 -37 73 8 -20 hstemhm
            return
          </CharString>
          <CharString index="112">
            -21 -14 6 callsubr
            return
          </CharString>
          <CharString index="113">
            70 460 70 return
          </CharString>
          <CharString index="114">
            rmoveto
            46 7 29 26 31 callsubr
            -26 7 -29 44 hvcurveto
            endchar
          </CharString>
          <CharString index="115">
            -76 -77 -43 -75 hhcurveto
            -28 -29 5 19 -27 hvcurveto
            return
          </CharString>
          <CharString index="116">
            28 113 165 100 44 -55 -77 12 hvcurveto
            return
          </CharString>
          <CharString index="117">
            54 86 324 86 return
          </CharString>
          <CharString index="118">
            74 88 397 88 return
          </CharString>
          <CharString index="119">
            -21 245 -20 hstem
            return
          </CharString>
          <CharString index="120">
            145 155 return
          </CharString>
          <CharString index="121">
            hstem
            106 86 vstem
            return
          </CharString>
          <CharString index="122">
            -8 -65 callsubr
            return
          </CharString>
          <CharString index="123">
            -87 callsubr
            endchar
          </CharString>
          <CharString index="124">
            hstem
            106 88 return
          </CharString>
          <CharString index="125">
            rmoveto
            172 30 -133 -162 -162 -30 -133 -172 hvcurveto
            -130 return
          </CharString>
          <CharString index="126">
            hstemhm
            96 86 286 86 return
          </CharString>
          <CharString index="127">
            72 614 72 return
          </CharString>
          <CharString index="128">
            -70 3 rlineto
            -73 -4 -34 -44 -105 hhcurveto
            -128 -25 111 119 hvcurveto
            return
          </CharString>
          <CharString index="129">
            -325 -35 callsubr
            return
          </CharString>
          <CharString index="130">
            130 -21 412 -20 hstem
            return
          </CharString>
          <CharString index="131">
            30 rlineto
            -15 -11 -92 -69 -102 vvcurveto
            -30 return
          </CharString>
          <CharString index="132">
            157 71 callsubr
            -51 -572 86 return
          </CharString>
          <CharString index="133">
            238 48 160 205 203 -48 162 -238 hvcurveto
            return
          </CharString>
          <CharString index="134">
            730 -20 return
          </CharString>
          <CharString index="135">
            -300 32 callsubr
            114 97 vstem
            114 return
          </CharString>
          <CharString index="136">
            284 68 hstem
            68 70 callsubr
            return
          </CharString>
          <CharString index="137">
            83 21 39 59 79 -45 14 -66 return
          </CharString>
          <CharString index="138">
            27 -7 29 -46 -44 -7 -29 -27 return
          </CharString>
          <CharString index="139">
            -85 -21 881 -20 hstem
            return
          </CharString>
          <CharString index="140">
            72 -14 74 670 -20 return
          </CharString>
          <CharString index="141">
            -513 86 513 return
          </CharString>
          <CharString index="142">
            -21 220 70 return
          </CharString>
          <CharString index="143">
            -730 88 return
          </CharString>
          <CharString index="144">
            2 -213 -21 220 6 callsubr
            -14 -20 hstemhm
            return
          </CharString>
          <CharString index="145">
            341 44 callsubr
            return
          </CharString>
          <CharString index="146">
            138 24 return
          </CharString>
          <CharString index="147">
            2 callsubr
            106 return
          </CharString>
          <CharString index="148">
            646 -21 202 -20 hstem
            return
          </CharString>
          <CharString index="149">
            -20 19 callsubr
            return
          </CharString>
          <CharString index="150">
            hlineto
            46 250 52 callsubr
            -46 -250 rlineto
            return
          </CharString>
          <CharString index="151">
            -66 -44 callsubr
            return
          </CharString>
          <CharString index="152">
            21 -21 513 59 return
          </CharString>
          <CharString index="153">
            -14 69 382 69 258 -20 hstem
            54 return
          </CharString>
          <CharString index="154">
            68 164 -20 hstem
            256 68 vstem
            92 return
          </CharString>
          <CharString index="155">
            27 -42 -72 hvcurveto
            -402 86 407 vlineto
            return
          </CharString>
          <CharString index="156">
            21 -2 callsubr
            -14 -20 hstemhm
            106 86 return
          </CharString>
          <CharString index="157">
            -16 27 29 -6 28 hhcurveto
            return
          </CharString>
          <CharString index="158">
            -7 callsubr
            hstem
            return
          </CharString>
          <CharString index="159">
            rlineto
            -87 hlineto
            return
          </CharString>
          <CharString index="160">
            21 -21 770 65 callsubr
            return
          </CharString>
          <CharString index="161">
            -36 callsubr
            hstem
            return
          </CharString>
          <CharString index="162">
            vlineto
            86 35 rlineto
            63 vlineto
            -86 -35 rlineto
            return
          </CharString>
          <CharString index="163">
            rmoveto
            -758 86 770 vlineto
            endchar
          </CharString>
          <CharString index="164">
            rlineto
            -90 hlineto
            return
          </CharString>
          <CharString index="165">
            40 callsubr
            88 return
          </CharString>
          <CharString index="166">
            -322 -66 70 662 70 hstem
            return
          </CharString>
          <CharString index="167">
            -330 -66 63 675 63 hstem
            return
          </CharString>
          <CharString index="168">
            rmoveto
            0 callsubr
            return
          </CharString>
          <CharString index="169">
            -325 -66 70 661 70 hstem
            return
          </CharString>
          <CharString index="170">
            -45 126 -21 424 -20 hstem
            return
          </CharString>
          <CharString index="171">
            0 70 590 70 return
          </CharString>
          <CharString index="172">
            -20 14 callsubr
            return
          </CharString>
          <CharString index="173">
            -14 71 616 71 return
          </CharString>
          <CharString index="174">
            -224 -21 817 return
          </CharString>
          <CharString index="175" raw="1">
            f7857701 0b  
          </CharString>
          <CharString index="176">
            86 295 86 return
          </CharString>
          <CharString index="177">
            284 rmoveto
            return
          </CharString>
          <CharString index="178">
            572 rmoveto
            return
          </CharString>
          <CharString index="179">
            rmoveto
            115 return
          </CharString>
        <CharString name=".notdef">
          -335 endchar
        </CharString>
        <CharString name="A">
          3 21 -21 220 70 440 -88 callsubr
          endchar
        </CharString>
        <CharString name="AE">
          286 0 70 246 70 274 70 hstem
          457 88 vstem
          340 -33 callsubr
          -311 -730 rlineto
          87 hlineto
          133 316 rlineto
          208 -316 408 70 -320 246 279 70 -279 274 300 70 hlineto
          -388 -71 rmoveto
          -273 -178 vlineto
          115 273 rlineto
          endchar
        </CharString>
        <CharString name="Aacute">
          -52 callsubr
          49 493 -91 callsubr
        </CharString>
        <CharString name="Acircumflex">
          -34 callsubr
          269 -88 callsubr
          3 500 -95 callsubr
        </CharString>
        <CharString name="Adieresis">
          -34 callsubr
          115 113 hstem
          -98 callsubr
          12 535 -107 callsubr
        </CharString>
        <CharString name="Agrave">
          -52 callsubr
          228 539 -86 callsubr
        </CharString>
        <CharString name="Aring">
          -34 callsubr
          69 47 114 48 hstem
          213 206 vstem
          -98 callsubr
          118 536 -40 callsubr
        </CharString>
        <CharString name="Atilde">
          -34 callsubr
          121 4 callsubr
          hintmask 11110100
          -98 callsubr
          192 541 -77 callsubr
          hintmask 11101000
          -82 callsubr
          hintmask 11110100
          -12 callsubr
        </CharString>
        <CharString name="B">
          -12 0 70 268 71 251 70 hstemhm
          106 88 247 88 -50 88 hintmask 11110100
          344 hmoveto
          177 46 95 100 82 -33 77 -110 24 hvcurveto
          hintmask 11111000
          81 30 24 66 69 vvcurveto
          95 -46 92 -177 vhcurveto
          -200 -730 hlineto
          88 70 rmoveto
          268 149 vlineto
          hintmask 11110100
          98 38 -59 -77 -75 -37 -57 -99 hvcurveto
          -149 339 rmoveto
          251 111 vlineto
          hintmask 11111000
          98 38 -53 -73 -72 -38 -53 -98 hvcurveto
          endchar
        </CharString>
        <CharString name="C">
          13 -14 20 callsubr
          hstem
          74 88 vstem
          -63 callsubr
          endchar
        </CharString>
        <CharString name="Ccedilla">
          13 -241 56 171 20 callsubr
          hstemhm
          74 88 -88 351 hintmask 11110000
          -63 callsubr
          -293 -682 rmoveto
          -58 21 -41 82 vhcurveto
          hintmask 11101000
          30 callsubr
          hvcurveto
          -48 callsubr
        </CharString>
        <CharString name="D">
          73 64 callsubr
          17 callsubr
          332 88 vstem
          106 -33 callsubr
          -730 222 vlineto
          26 callsubr
          -4 -70 18 callsubr
          590 hlineto
          endchar
        </CharString>
        <CharString name="Delta">
          -7 0 60 670 -20 hstem
          262 -33 callsubr
          -268 -730 rlineto
          630 hlineto
          -268 730 rlineto
          -47 -97 rmoveto
          206 -573 rlineto
          -413 hlineto
          endchar
        </CharString>
        <CharString name="E">
          -25 callsubr
          -81 callsubr
          endchar
        </CharString>
        <CharString name="Eacute">
          -43 callsubr
          -242 53 -91 callsubr
        </CharString>
        <CharString name="Ecircumflex">
          -25 callsubr
          249 -20 -81 callsubr
          -320 60 -95 callsubr
        </CharString>
        <CharString name="Edieresis">
          -25 callsubr
          95 113 -81 callsubr
          -311 95 -107 callsubr
        </CharString>
        <CharString name="Egrave">
          -43 callsubr
          -95 99 -86 callsubr
        </CharString>
        <CharString name="Eth">
          73 0 70 260 68 262 70 17 callsubr
          332 88 vstem
          58 330 rmoveto
          48 -330 222 hlineto
          26 callsubr
          -222 -332 -48 hlineto
          266 262 18 callsubr
          260 216 68 -216 262 hlineto
          endchar
        </CharString>
        <CharString name="Euro">
          5 -14 71 205 61 84 61 205 71 hstem
          517 76 vstem
          47 407 rmoveto
          68 hlineto
          -1 -14 0 -14 -14 vvcurveto
          -14 0 -14 1 -14 vhcurveto
          -68 -61 71 hlineto
          -158 15 60 -118 178 hhcurveto
          142 78 65 117 2 hvcurveto
          -75 4 rlineto
          -76 -65 -39 -82 -116 -40 80 125 -11 vhcurveto
          233 61 -237 84 237 61 -233 hlineto
          124 11 40 81 116 hhcurveto
          81 65 -39 -74 hvcurveto
          76 4 rlineto
          115 -3 -78 65 -141 hhcurveto
          -178 -60 -119 -157 -15 hvcurveto
          -71 hlineto
          endchar
        </CharString>
        <CharString name="F">
          -107 21 -21 336 70 254 70 -72 callsubr
          88 336 257 70 -257 254 280 70 vlineto
          endchar
        </CharString>
        <CharString name="G">
          68 -14 72 -37 -21 308 59 305 72 hstemhm
          74 88 hintmask 10111000
          406 308 rmoveto
          113 -100 hlineto
          -89 -8 -55 -61 -109 hhcurveto
          -157 -28 108 199 194 9 callsubr
          71 13 rlineto
          -16 callsubr
          -235 45 -145 226 94 59 42 59 36 hvcurveto
          hintmask 01111000
          15 -87 rlineto
          48 367 -191 hlineto
          endchar
        </CharString>
        <CharString name="H">
          101 21 -21 330 70 330 -20 17 callsubr
          338 88 vstem
          532 -33 callsubr
          -330 -338 330 -88 36 callsubr
          330 338 -330 88 730 vlineto
          endchar
        </CharString>
        <CharString name="I">
          -325 21 -21 730 -20 -50 callsubr
          endchar
        </CharString>
        <CharString name="Iacute">
          -6 callsubr
          -94 53 -91 callsubr
        </CharString>
        <CharString name="Icircumflex">
          22 callsubr
          269 -20 -50 callsubr
          -160 60 -95 callsubr
        </CharString>
        <CharString name="Idieresis">
          22 callsubr
          115 113 -50 callsubr
          -151 95 -107 callsubr
        </CharString>
        <CharString name="Igrave">
          -6 callsubr
          65 99 -86 callsubr
        </CharString>
        <CharString name="J">
          -158 -14 72 672 -20 hstemhm
          92 196 0 88 hintmask 11100000
          376 -33 callsubr
          -88 -547 hlineto
          -94 -18 -31 -78 -79 -21 35 96 vhcurveto
          -76 hlineto
          -108 5 -95 168 vhcurveto
          hintmask 11010000
          171 16 89 108 hvcurveto
          endchar
        </CharString>
        <CharString name="K">
          -27 58 callsubr
          vstem
          584 hmoveto
          -245 368 231 362 rlineto
          -92 hlineto
          -205 -325 rlineto
          -79 325 -88 36 callsubr
          335 73 hlineto
          222 -335 rlineto
          endchar
        </CharString>
        <CharString name="L">
          -143 0 70 660 -23 callsubr
          hmoveto
          360 70 -272 660 -88 hlineto
          endchar
        </CharString>
        <CharString name="Lslash">
          -143 0 70 660 -20 -3 callsubr
          22 296 rmoveto
          84 34 rlineto
          -330 360 70 -272 295 55 callsubr
          302 -88 -337 vlineto
          -84 -34 rlineto
          endchar
        </CharString>
        <CharString name="M">
          252 40 callsubr
          83 498 84 vstem
          642 -33 callsubr
          -210 -559 -197 559 rlineto
          -119 hlineto
          -20 -730 rlineto
          86 hlineto
          15 609 194 -547 rlineto
          80 hlineto
          209 553 15 -615 rlineto
          86 hlineto
          -19 730 rlineto
          endchar
        </CharString>
        <CharString name="N">
          119 58 callsubr
          356 88 vstem
          -19 callsubr
          endchar
        </CharString>
        <CharString name="Ntilde">
          119 -35 callsubr
          121 4 callsubr
          106 88 356 88 hintmask 11101110
          -19 callsubr
          -187 101 -78 callsubr
        </CharString>
        <CharString name="O">
          3 callsubr
          -100 callsubr
          endchar
        </CharString>
        <CharString name="OE">
          342 0 70 266 70 253 71 hstem
          74 88 387 87 vstem
          355 hmoveto
          566 70 -363 hlineto
          56 58 20 91 2 117 rrcurveto
          244 70 -244 hlineto
          -4 110 -20 87 -55 57 rrcurveto
          344 70 -546 hlineto
          -228 -53 -144 -221 -223 53 -142 228 hvcurveto
          71 vmoveto
          -157 -36 115 179 179 36 115 157 156 38 -115 -179 -179 -38 -115 -156 hvcurveto
          endchar
        </CharString>
        <CharString name="Oacute">
          -70 callsubr
          -70 725 -91 callsubr
        </CharString>
        <CharString name="Ocircumflex">
          3 callsubr
          235 -20 -100 callsubr
          -116 732 -95 callsubr
        </CharString>
        <CharString name="Odieresis">
          3 callsubr
          81 113 -100 callsubr
          -107 767 -107 callsubr
        </CharString>
        <CharString name="Ograve">
          -70 callsubr
          109 771 -86 callsubr
        </CharString>
        <CharString name="Omega">
          184 0 60 613 72 hstemhm
          72 88 -88 234 197 234 -88 88 hintmask 11100100
          404 673 rmoveto
          190 55 -96 -156 hvcurveto
          hintmask 11011000
          -113 -35 -78 -111 -27 vhcurveto
          -203 206 60 -132 98 vlineto
          114 47 46 91 131 vvcurveto
          197 -90 121 -243 -243 -89 -121 -197 -131 45 -90 114 -47 vhcurveto
          -99 -131 -60 206 203 vlineto
          hintmask 11101000
          -111 27 -35 78 113 vvcurveto
          156 55 96 189 vhcurveto
          endchar
        </CharString>
        <CharString name="Oslash">
          96 -73 -21 80 20 callsubr
          83 -20 hstem
          11 callsubr
          vstem
          223 -94 rmoveto
          60 hlineto
          19 84 rlineto
          -2 18 19 -2 21 hhcurveto
          232 55 166 213 170 -36 143 -137 48 hvcurveto
          24 101 rlineto
          -61 hlineto
          -21 -87 rlineto
          2 -17 -19 2 -20 hhcurveto
          -233 -53 -168 -211 -173 35 -141 136 -48 hvcurveto
          115 55 rmoveto
          -15 -14 1 2 -12 hvcurveto
          137 588 rlineto
          80 -46 23 -110 -128 vvcurveto
          -170 -39 -137 -160 vhcurveto
          -198 307 rmoveto
          170 37 137 161 14 13 -2 -2 13 vhcurveto
          -137 -588 rlineto
          -80 46 -21 110 129 vvcurveto
          endchar
        </CharString>
        <CharString name="Otilde">
          3 callsubr
          87 4 callsubr
          11 callsubr
          hintmask 11101110
          -105 callsubr
          73 773 -78 callsubr
        </CharString>
        <CharString name="P">
          -36 21 -21 271 70 319 70 17 callsubr
          265 88 vstem
          321 271 rmoveto
          182 44 111 118 119 -44 111 -182 hvcurveto
          -215 36 callsubr
          271 hlineto
          70 vmoveto
          319 122 vlineto
          108 35 -68 -92 -91 -35 -68 -108 hvcurveto
          endchar
        </CharString>
        <CharString name="Q">
          86 -118 -21 126 71 614 72 hstem
          74 88 387 88 vstem
          582 -139 rmoveto
          36 67 -159 71 rlineto
          141 40 37 130 196 vvcurveto
          235 -54 144 -228 -228 -53 -144 -235 -227 48 -140 205 -11 vhcurveto
          28 71 rmoveto
          -157 -36 117 190 190 36 117 157 156 38 -117 -190 -190 -38 -117 -156 hvcurveto
          endchar
        </CharString>
        <CharString name="R">
          15 21 -21 301 70 289 70 17 callsubr
          269 88 vstem
          106 -33 callsubr
          36 callsubr
          301 85 vlineto
          54 -2 31 -11 22 -51 101 -237 rcurveline
          94 hlineto
          -108 249 -14 31 -15 21 -19 14 rlinecurve
          100 34 26 88 78 vvcurveto
          100 -41 115 -183 vhcurveto
          -133 -359 rmoveto
          289 129 vlineto
          106 34 -73 -72 -72 -34 -72 -106 hvcurveto
          endchar
        </CharString>
        <CharString name="S">
          -27 66 callsubr
          -80 callsubr
          endchar
        </CharString>
        <CharString name="Scaron">
          -27 66 callsubr
          233 -20 -80 callsubr
          72 581 -75 callsubr
        </CharString>
        <CharString name="T">
          -131 21 -21 660 70 hstem
          203 88 vstem
          7 660 rmoveto
          196 -660 88 660 196 70 -480 hlineto
          endchar
        </CharString>
        <CharString name="Thorn">
          -44 21 -21 137 76 303 76 138 -20 17 callsubr
          257 88 vstem
          318 137 rmoveto
          178 43 110 117 118 -43 110 -178 hvcurveto
          -124 138 -88 36 callsubr
          137 hlineto
          76 vmoveto
          303 119 vlineto
          114 24 -71 -81 -80 -24 -71 -114 hvcurveto
          endchar
        </CharString>
        <CharString name="U">
          33 callsubr
          -94 callsubr
          endchar
        </CharString>
        <CharString name="Uacute">
          -54 callsubr
          -271 53 -91 callsubr
        </CharString>
        <CharString name="Ucircumflex">
          33 callsubr
          269 -20 -94 callsubr
          -368 60 -95 callsubr
        </CharString>
        <CharString name="Udieresis">
          33 callsubr
          115 113 -94 callsubr
          -358 95 -107 callsubr
        </CharString>
        <CharString name="Ugrave">
          -54 callsubr
          -172 99 -86 callsubr
        </CharString>
        <CharString name="V">
          -13 2 callsubr
          365 hmoveto
          222 730 rlineto
          -89 hlineto
          -192 -647 -191 647 57 callsubr
          223 -730 rlineto
          endchar
        </CharString>
        <CharString name="W">
          246 2 callsubr
          315 hmoveto
          120 556 121 -556 rlineto
          128 hlineto
          159 730 57 callsubr
          -136 -648 -138 648 52 callsubr
          -139 -648 -135 648 57 callsubr
          159 -730 rlineto
          endchar
        </CharString>
        <CharString name="X">
          4 2 callsubr
          40 -33 callsubr
          223 -348 -236 -382 rlineto
          97 hlineto
          186 308 198 -308 rlineto
          100 hlineto
          -240 374 221 356 rlineto
          -96 hlineto
          -172 -283 -181 283 rlineto
          endchar
        </CharString>
        <CharString name="Y">
          -75 21 -21 730 -20 -67 callsubr
          endchar
        </CharString>
        <CharString name="Yacute">
          -75 -35 callsubr
          275 -20 -67 callsubr
          -95 783 -91 callsubr
        </CharString>
        <CharString name="Ydieresis">
          -75 -35 callsubr
          115 113 -67 callsubr
          -151 825 -107 callsubr
        </CharString>
        <CharString name="Z">
          -76 64 callsubr
          -20 callsubr
          endchar
        </CharString>
        <CharString name="Zcaron">
          -76 64 callsubr
          247 -20 -20 callsubr
          353 247 -75 callsubr
        </CharString>
        <CharString name="a">
          -37 callsubr
          1 callsubr
          hintmask 10111000
          -96 callsubr
          hintmask 01111000
          -83 callsubr
          hintmask 10111000
          -92 callsubr
          endchar
        </CharString>
        <CharString name="aacute">
          -85 callsubr
          36 573 -91 callsubr
        </CharString>
        <CharString name="acircumflex">
          -37 callsubr
          235 -20 -103 callsubr
          -56 580 -95 callsubr
        </CharString>
        <CharString name="acute">
          -315 41 callsubr
          85 625 -91 callsubr
        </CharString>
        <CharString name="adieresis">
          -37 callsubr
          81 113 -103 callsubr
          -30 615 -107 callsubr
        </CharString>
        <CharString name="ae">
          303 54 callsubr
          52 84 266 87 vstem
          647 -93 callsubr
          -88 -57 -30 -48 -37 vhcurveto
          61 -35 -65 17 -75 hhcurveto
          -118 -63 -61 -96 -21 hvcurveto
          69 -20 rlineto
          67 13 46 40 72 hhcurveto
          65 53 -23 -107 hvcurveto
          -52 vlineto
          -149 -26 rlineto
          -165 -29 -36 -63 -83 vvcurveto
          -82 42 -65 108 96 73 52 70 61 vhcurveto
          -80 34 67 -42 114 hhcurveto
          -423 66 rmoveto
          -63 -25 37 45 49 23 41 103 19 hvcurveto
          142 26 rlineto
          -35 5 -40 6 -35 vhcurveto
          -58 -49 -68 -49 -74 hhcurveto
          418 464 -73 callsubr
          endchar
        </CharString>
        <CharString name="agrave">
          -85 callsubr
          169 619 -86 callsubr
        </CharString>
        <CharString name="ampersand">
          9 -15 72 282 62 272 71 hstemhm
          51 86 -66 66 -66 86 287 76 hintmask 11101010
          480 602 rmoveto
          90 -17 -59 52 -121 hhcurveto
          -158 -54 -80 -117 -78 50 -65 70 -29 hvcurveto
          hintmask 11110010
          -80 -25 -60 -59 -100 vvcurveto
          -129 71 -77 168 203 27 93 159 vhcurveto
          102 116 62 -250 -62 58 -148 vlineto
          -83 -38 -51 -114 -112 -43 46 87 100 43 49 115 vhcurveto
          62 -15 vlineto
          hintmask 11100110
          -78 -45 64 75 81 29 52 100 75 36 -35 -58 9 hvcurveto
          endchar
        </CharString>
        <CharString name="apple">
          294 -114 101 -76 92 12 -21 83 40 243 57 76 93 -77 77 -77 99 -25 -20 22 -20 hstemhm
          98 115 -91 91 77 128 85 127 75 93 -93 105 hintmask 0101110000101110
          554 -89 rmoveto
          1 3 4 0 3 8 7 -1 8 hhcurveto
          26 2 19 10 17 hvcurveto
          15 8 21 1 13 9 13 9 5 22 12 12 10 10 16 1 9 11 11 13 -1 24 8 14 rrcurveto
          10 17 24 1 28 10 -2 11 11 vvcurveto
          25 22 3 3 20 vhcurveto
          hintmask 1011110000101101
          14 -11 15 15 13 11 12 14 22 -24 14 25 vvcurveto
          hintmask 1011110000101110
          8 1 8 9 vvcurveto
          28 -25 3 -11 18 vhcurveto
          -6 10 5 22 -6 10 -11 19 -26 4 -14 13 -12 12 2 18 -13 9 -14 10 -16 -3 -15 8 rrcurveto
          10 -19 -2 26 -27 hhcurveto
          hintmask 1011100010101110
          -10 -10 -3 -8 hhcurveto
          hintmask 1011100100101110
          -24 -7 25 -26 -14 -17 -12 -14 -13 -18 12 -13 hhcurveto
          hintmask 1011100001011110
          -22 -8 -23 -25 -9 -9 2 -8 hhcurveto
          -25 -1 -7 -28 -17 -9 -16 -8 -22 2 -13 -11 -11 -10 -4 -21 -10 -10 -11 -11 -21 0 -8 -13 -7 -11 3 -21 -7 -11 rrcurveto
          -10 -17 -25 -6 -25 -8 1 -9 -8 vvcurveto
          hintmask 0101110000101110
          -19 -25 -21 -21 -15 12 -10 -17 -15 -12 -15 -14 -21 25 -15 -19 -8 -3 -8 -9 vvcurveto
          -26 26 -11 8 -12 vhcurveto
          11 -18 -7 -11 11 -18 10 -16 16 3 13 -11 13 -11 -1 -24 18 -11 16 -10 7 9 23 -12 rrcurveto
          -7 13 12 -29 26 7 9 2 8 hhcurveto
          hintmask 1011110000101110
          24 11 -25 20 15 15 12 16 15 16 -10 15 hhcurveto
          hintmask 0101110000101110
          17 13 18 5 18 hvcurveto
          -26 92 rmoveto
          hintmask 1011110000101110
          -3 -13 -10 -13 -12 -11 -11 7 -11 -12 -12 -9 -12 hhcurveto
          hintmask 0101110000101110
          2 -14 -7 16 -19 -5 -5 -1 -5 hhcurveto
          -19 -7 21 5 -11 hvcurveto
          -17 9 -5 -8 -11 8 -13 8 1 18 -10 8 -9 8 -12 -2 -7 11 -8 13 5 9 -8 13 rrcurveto
          -5 9 -20 7 19 5 2 6 5 15 -17 11 15 11 8 11 11 12 -8 7 11 16 17 14 16 5 -1 6 5 vvcurveto
          19 19 4 7 13 vhcurveto
          5 8 -2 15 5 8 7 9 14 0 8 8 8 8 2 15 9 7 9 8 16 -2 11 6 rrcurveto
          6 13 4 21 19 6 5 -1 6 hhcurveto
          hintmask 1011101000101110
          19 7 17 16 10 12 -9 10 10 12 9 11 19 3 -18 19 hhcurveto
          hintmask 0101110000101110
          6 7 2 7 hhcurveto
          20 1 -19 -7 13 hvcurveto
          12 -7 11 4 10 -8 10 -7 -2 -13 9 -8 10 -10 19 -3 8 -13 4 -8 -3 -15 4 -8 rrcurveto
          8 -14 18 -1 -21 -6 -1 -6 -5 -18 18 -11 -16 -9 -8 -10 -9 -11 8 -11 -10 vvcurveto
          -3 -14 -15 -3 -19 -6 1 -7 -7 vvcurveto
          -24 -16 3 -8 -14 vhcurveto
          -6 -11 0 -17 -7 -10 -7 -8 -12 0 -7 -8 -8 -8 -4 -15 -10 -7 -9 -7 -16 -1 -10 -6 rrcurveto
          -5 -12 -1 -16 -20 -5 -5 1 -5 hhcurveto
          -3 -3 0 -1 -3 hvcurveto
          -68 414 rmoveto
          -94 -76 -76 -94 -94 76 -76 94 94 76 76 94 94 -76 76 -94 hvcurveto
          43 -125 rmoveto
          -175 -85 175 -54 68 191 -68 vlineto
          endchar
        </CharString>
        <CharString name="approxequal">
          -45 162 66 -23 66 91 66 -23 66 hstemhm
          hintmask 10100000
          92 384 rmoveto
          50 callsubr
          hintmask 10010000
          -32 callsubr
          hintmask 10100000
          8 callsubr
          -268 vmoveto
          50 callsubr
          hintmask 01100000
          -32 callsubr
          hintmask 10100000
          8 callsubr
          endchar
        </CharString>
        <CharString name="aring">
          -37 callsubr
          35 47 114 48 hstemhm
          53 85 63 206 -3 86 hintmask 10111101
          -96 callsubr
          hintmask 01111101
          -83 callsubr
          hintmask 10111101
          -92 callsubr
          79 616 -38 callsubr
          hintmask 10111110
          -30 callsubr
        </CharString>
        <CharString name="asciicircum">
          -45 337 -21 302 -20 hstem
          247 618 rmoveto
          -149 -302 rlineto
          75 hlineto
          117 245 117 -245 rlineto
          75 hlineto
          -149 302 rlineto
          endchar
        </CharString>
        <CharString name="asciitilde">
          -45 262 66 -23 66 hstemhm
          hintmask 10000000
          92 70 callsubr
          50 callsubr
          hintmask 01000000
          -32 callsubr
          hintmask 10000000
          8 callsubr
          endchar
        </CharString>
        <CharString name="asterisk">
          -72 324 -21 274 -20 222 -20 hstem
          231 779 rmoveto
          -83 vlineto
          32 -119 rlineto
          28 hlineto
          32 119 rlineto
          83 vlineto
          -297 -213 rmoveto
          79 -26 123 -8 9 26 -104 66 -79 25 rlineto
          113 -346 rmoveto
          49 68 44 114 -22 17 -95 -77 -49 -69 rlineto
          365 hmoveto
          -49 69 -95 76 -23 -16 45 -114 49 -68 rlineto
          113 346 rmoveto
          -80 -25 -102 -66 8 -27 123 9 79 26 rlineto
          endchar
        </CharString>
        <CharString name="at">
          399 -95 65 145 70 319 61 121 65 hstem
          86 84 124 78 231 78 178 79 vstem
          514 -95 rmoveto
          167 65 -167 hlineto
          -289 -55 144 214 214 84 144 260 259 86 -144 -177 -112 -33 -68 -118 hvcurveto
          -27 380 -32 hlineto
          -25 -36 rlineto
          21 -42 -52 15 -51 hhcurveto
          -150 -35 -109 -116 -117 31 -108 122 65 55 33 38 40 hvcurveto
          23 -61 rlineto
          80 hlineto
          168 60 96 144 219 -131 167 -293 -307 -121 -171 -252 -252 88 -171 340 hvcurveto
          -41 271 rmoveto
          -74 -27 70 94 97 29 67 93 30 40 -7 -18 39 hvcurveto
          -239 vlineto
          -41 -39 -41 -23 -50 hhcurveto
          endchar
        </CharString>
        <CharString name="atilde">
          -37 callsubr
          87 73 -37 73 8 -20 1 callsubr
          hintmask 10110111
          -96 callsubr
          hintmask 01110111
          -83 callsubr
          hintmask 10110111
          -92 callsubr
          133 621 -77 callsubr
          hintmask 10101011
          -82 callsubr
          hintmask 10110111
          -12 callsubr
        </CharString>
        <CharString name="b">
          2 -14 70 -35 -2 callsubr
          182 -20 hstemhm
          106 69 callsubr
          hintmask 10111100
          357 -14 rmoveto
          173 43 13 callsubr
          155 -45 145 -171 -56 -58 -19 -28 -51 hvcurveto
          229 vlineto
          -86 -10 rlineto
          hintmask 01111100
          -758 51 vlineto
          19 47 rlineto
          hintmask 10111100
          -33 47 67 -28 67 hhcurveto
          -16 530 rmoveto
          111 35 -114 -116 -127 -32 -103 -122 -42 -52 15 32 -47 hvcurveto
          370 vlineto
          31 52 47 12 50 hhcurveto
          endchar
        </CharString>
        <CharString name="backslash">
          -305 32 callsubr
          85 775 rmoveto
          -87 hlineto
          237 -881 rlineto
          87 hlineto
          endchar
        </CharString>
        <CharString name="bar">
          28 callsubr
          -106 rmoveto
          97 881 -97 hlineto
          endchar
        </CharString>
        <CharString name="braceleft">
          59 callsubr
          84 98 vstem
          133 339 rmoveto
          25 24 24 41 hvcurveto
          41 -8 29 48 vvcurveto
          84 27 60 96 vhcurveto
          70 vlineto
          -162 -51 -90 -113 hvcurveto
          -45 8 -37 -39 vvcurveto
          -39 -47 -9 -26 vhcurveto
          -58 vlineto
          26 47 -9 -39 hvcurveto
          -39 -8 -37 -45 vvcurveto
          -113 51 -90 162 vhcurveto
          70 vlineto
          -96 -27 61 84 hvcurveto
          49 8 30 41 vvcurveto
          41 -24 23 -25 vhcurveto
          endchar
        </CharString>
        <CharString name="braceright">
          59 callsubr
          121 98 vstem
          170 335 rmoveto
          -25 -24 -24 -41 hvcurveto
          -41 8 -30 -49 vvcurveto
          -85 -27 -61 -96 vhcurveto
          -70 vlineto
          161 52 90 113 hvcurveto
          45 -8 37 39 vvcurveto
          39 46 9 27 vhcurveto
          58 vlineto
          -27 -46 9 39 hvcurveto
          39 8 37 45 vvcurveto
          113 -52 90 -161 vhcurveto
          -70 vlineto
          96 27 -59 -81 hvcurveto
          -49 -8 -30 -41 vvcurveto
          -42 24 -23 25 vhcurveto
          endchar
        </CharString>
        <CharString name="bracketleft">
          60 callsubr
          78 89 vstem
          78 -66 rmoveto
          211 63 -122 675 122 63 -211 hlineto
          endchar
        </CharString>
        <CharString name="bracketright">
          60 callsubr
          128 89 vstem
          217 735 rmoveto
          -211 -63 122 -675 -122 -63 211 hlineto
          endchar
        </CharString>
        <CharString name="breve">
          -204 642 66 -66 139 hstemhm
          hintmask 01000000
          278 781 rmoveto
          hintmask 10000000
          -38 -4 -35 -64 vhcurveto
          hintmask 01000000
          -64 -4 35 38 hvcurveto
          -60 hlineto
          -71 13 -68 115 116 13 68 71 vhcurveto
          endchar
        </CharString>
        <CharString name="brokenbar">
          28 callsubr
          439 rmoveto
          97 336 -97 hlineto
          -881 vmoveto
          97 336 -97 hlineto
          endchar
        </CharString>
        <CharString name="bullet">
          -359 259 -21 185 -20 hstem
          51 162 vstem
          131 238 rmoveto
          78 4 48 44 43 -4 50 -78 -75 -5 -50 -43 -44 5 -48 75 hvcurveto
          endchar
        </CharString>
        <CharString name="c">
          -75 -14 6 callsubr
          hstemhm
          54 86 0 296 hintmask 11010000
          -17 callsubr
          hintmask 11100000
          -1 callsubr
          hintmask 11010000
          21 callsubr
          endchar
        </CharString>
        <CharString name="caron">
          -258 651 -21 189 -20 hstem
          300 819 -75 callsubr
        </CharString>
        <CharString name="ccedilla">
          -75 -241 56 171 6 callsubr
          hstemhm
          54 86 0 296 hintmask 11101000
          -17 callsubr
          hintmask 11110000
          -1 callsubr
          hintmask 11101000
          21 callsubr
          33 -428 -39 callsubr
        </CharString>
        <CharString name="cedilla">
          -330 -241 56 135 -20 hstem
          44 -142 -39 callsubr
        </CharString>
        <CharString name="cent">
          6 -60 -21 120 70 512 70 119 -20 hstemhm
          87 86 0 323 -183 60 hintmask 11110100
          573 232 rmoveto
          -69 4 rlineto
          -78 -3 -35 -49 -126 hhcurveto
          -150 -17 121 135 135 12 121 170 104 33 -63 -79 4 hvcurveto
          69 4 rlineto
          hintmask 11111010
          -8 110 -43 91 -141 7 rrcurveto
          119 -60 -120 vlineto
          -199 -18 -27 -149 -158 vvcurveto
          -163 30 -151 196 -12 vhcurveto
          -120 60 120 vlineto
          148 10 43 76 9 107 rrcurveto
          endchar
        </CharString>
        <CharString name="circumflex">
          -228 653 -21 189 -20 hstem
          82 632 -95 callsubr
        </CharString>
        <CharString name="colon">
          -397 -8 123 292 123 hstem
          60 108 vstem
          113 15 callsubr
          415 vmoveto
          16 callsubr
        </CharString>
        <CharString name="comma">
          -45 callsubr
        </CharString>
        <CharString name="copyright">
          104 261 49 42 47 324 46 42 49 hstemhm
          65 54 87 58 -58 288 116 54 hintmask 11111011
          493 652 rmoveto
          75 -7 -43 42 -82 hhcurveto
          -116 -39 -76 -132 -131 34 -78 122 90 37 54 80 5 hvcurveto
          -48 2 rlineto
          -51 -2 -25 -38 -56 hhcurveto
          hintmask 11111101
          -80 -19 60 102 102 24 60 74 51 26 -25 -49 5 hvcurveto
          -379 -89 -51 callsubr
          endchar
        </CharString>
        <CharString name="currency">
          5 127 -21 49 73 274 73 49 -20 hstem
          115 77 256 77 vstem
          98 624 rmoveto
          -42 -42 91 -92 rlineto
          -23 -36 -9 -44 -45 vvcurveto
          -46 9 -44 22 -36 vhcurveto
          -90 -91 42 -42 88 88 rlineto
          -24 31 41 -15 55 hhcurveto
          56 44 14 22 32 hvcurveto
          87 -85 42 42 -86 86 rlineto
          26 37 11 46 48 vvcurveto
          48 -11 47 -25 37 vhcurveto
          85 85 -42 42 -85 -84 rlineto
          22 -30 -40 13 -51 hhcurveto
          -60 -45 -16 -25 -33 hvcurveto
          125 -306 rmoveto
          -92 -29 70 67 67 30 70 104 93 29 -70 -67 -67 -30 -70 -105 hvcurveto
          endchar
        </CharString>
        <CharString name="d">
          2 -14 70 -35 -21 518 68 182 -20 hstemhm
          54 69 callsubr
          hintmask 01111100
          464 hmoveto
          57 768 hlineto
          -86 -10 rlineto
          -211 vlineto
          23 -48 -56 16 -54 hhcurveto
          -181 -42 -22 callsubr
          hvcurveto
          hintmask 10111100
          -155 36 -145 148 83 70 48 53 48 vhcurveto
          hintmask 01111100
          hintmask 10111100
          -173 -31 rmoveto
          -92 -34 97 133 135 35 97 119 38 51 -11 -28 52 hvcurveto
          -327 vlineto
          -62 -51 -52 -34 -66 hhcurveto
          endchar
        </CharString>
        <CharString name="dagger">
          -177 21 -21 494 78 158 -20 hstem
          187 74 vstem
          430 71 callsubr
          -48 hlineto
          -113 -12 5 170 rlineto
          -100 hlineto
          4 -170 -112 12 rlineto
          -48 -78 48 hlineto
          114 11 14 -505 rlineto
          60 hlineto
          14 505 114 -11 rlineto
          48 hlineto
          endchar
        </CharString>
        <CharString name="daggerdbl">
          -177 21 -21 158 78 258 78 158 -20 hstemhm
          18 239 -67 240 hintmask 11111000
          18 158 rmoveto
          48 hlineto
          117 11 -9 -169 rlineto
          100 hlineto
          -10 169 118 -11 rlineto
          hintmask 11110100
          48 78 -48 hlineto
          -121 -12 -7 141 7 140 121 -11 rlineto
          48 78 -48 hlineto
          -118 -12 10 170 rlineto
          -100 hlineto
          9 -170 -117 12 rlineto
          hintmask 11111000
          -48 -78 48 hlineto
          120 12 8 -141 -8 -141 -120 12 rlineto
          -48 hlineto
          endchar
        </CharString>
        <CharString name="degree">
          -204 340 61 248 61 hstem
          42 76 184 77 vstem
          210 401 rmoveto
          -88 -4 57 67 67 4 57 88 88 4 -57 -67 -67 -4 -57 -88 hvcurveto
          -61 vmoveto
          152 17 90 95 96 -17 89 -152 -151 -17 -89 -96 -95 17 -90 151 hvcurveto
          endchar
        </CharString>
        <CharString name="dieresis">
          -301 667 113 hstem
          55 667 -107 callsubr
        </CharString>
        <CharString name="divide">
          -45 83 125 76 68 66 125 hstem
          238 104 vstem
          92 70 callsubr
          -8 callsubr
          197 -269 rmoveto
          50 3 33 29 30 -3 33 -50 -48 -3 -33 -30 -29 3 -33 48 hvcurveto
          335 vmoveto
          50 3 33 29 30 -3 33 -50 -48 -3 -33 -30 -29 3 -33 48 hvcurveto
          endchar
        </CharString>
        <CharString name="dollar">
          5 -92 -21 107 70 601 70 108 -20 hstemhm
          90 65 -65 86 110 61 125 85 hintmask 11111011
          363 318 rmoveto
          77 -14 32 -42 -62 vvcurveto
          -86 -34 -50 -121 -122 -40 50 92 vhcurveto
          -76 -5 rlineto
          -122 52 -76 155 -9 vhcurveto
          -107 61 107 vlineto
          156 8 54 81 117 vvcurveto
          112 -54 66 -134 19 vhcurveto
          -97 13 rlineto
          hintmask 11110111
          -73 10 -23 47 61 vvcurveto
          86 30 51 113 113 38 -48 -92 vhcurveto
          76 5 rlineto
          122 -52 74 -147 9 vhcurveto
          108 -61 -108 vlineto
          -148 -9 -48 -75 -123 vvcurveto
          -113 50 -62 126 -20 vhcurveto
          endchar
        </CharString>
        <CharString name="dotaccent">
          -355 654 143 hstem
          85 116 vstem
          142 654 rmoveto
          56 3 38 33 34 -3 38 -56 -54 -3 -38 -34 -33 3 -38 54 hvcurveto
          endchar
        </CharString>
        <CharString name="dotlessi">
          21 -21 572 -20 -58 callsubr
          endchar
        </CharString>
        <CharString name="e">
          -47 -14 70 221 64 175 70 -97 callsubr
          endchar
        </CharString>
        <CharString name="eacute">
          -79 callsubr
          -27 109 -91 callsubr
        </CharString>
        <CharString name="ecircumflex">
          -47 -36 callsubr
          235 -20 -97 callsubr
          -111 116 -95 callsubr
        </CharString>
        <CharString name="edieresis">
          -55 -36 callsubr
          81 113 hstem
          46 85 vstem
          289 -102 callsubr
          -102 151 -107 callsubr
        </CharString>
        <CharString name="egrave">
          -79 callsubr
          114 155 -86 callsubr
        </CharString>
        <CharString name="eight">
          9 66 callsubr
          hstem
          80 76 324 85 vstem
          70 186 rmoveto
          -116 93 -84 155 154 93 84 116 92 -40 61 -82 31 vhcurveto
          72 32 40 54 78 vvcurveto
          115 -76 95 -161 -162 -76 -95 -115 -81 36 -57 75 -32 vhcurveto
          -78 -32 -43 -59 -87 vvcurveto
          293 140 rmoveto
          87 -14 30 -49 -77 vvcurveto
          -72 -56 -57 -107 -108 -53 57 72 81 42 58 86 14 vhcurveto
          -119 193 rmoveto
          77 44 64 109 108 44 -64 -77 -69 -41 -55 -85 -15 vhcurveto
          -61 10 rlineto
          -90 14 -28 45 70 vvcurveto
          endchar
        </CharString>
        <CharString name="ellipsis">
          67 -8 123 hstem
          113 15 callsubr
          232 hmoveto
          -87 callsubr
          232 hmoveto
          16 callsubr
        </CharString>
        <CharString name="emdash">
          284 29 callsubr
          773 68 -773 hlineto
          endchar
        </CharString>
        <CharString name="endash">
          -49 29 callsubr
          440 68 -440 hlineto
          endchar
        </CharString>
        <CharString name="equal">
          -45 182 68 136 68 hstem
          92 386 rmoveto
          -8 callsubr
          -272 vmoveto
          -8 callsubr
          endchar
        </CharString>
        <CharString name="eth">
          -21 46 callsubr
          86 324 86 vstem
          270 71 callsubr
          105 42 30 -45 25 -53 17 -66 rlinecurve
          32 -33 -46 24 -66 hhcurveto
          -201 -47 -139 -121 -122 47 -138 201 201 47 138 122 hvcurveto
          21 vlineto
          167 -51 122 -58 85 vhcurveto
          87 35 rlineto
          63 vlineto
          -123 -50 -26 31 -26 25 -22 19 rlinecurve
          -42 -50 17 -16 17 -17 16 -19 rlinecurve
          -69 -27 rlineto
          32 -580 rmoveto
          -139 -23 106 85 85 23 106 139 39 callsubr
          -106 -85 -85 -24 -106 -138 hvcurveto
          endchar
        </CharString>
        <CharString name="exclam">
          -313 -8 123 615 -20 hstemhm
          118 74 -74 85 hintmask 11100000
          155 15 callsubr
          -48 738 rmoveto
          -164 vlineto
          22 -375 rlineto
          52 hlineto
          hintmask 11010000
          22 375 rlineto
          164 vlineto
          endchar
        </CharString>
        <CharString name="exclamdown">
          -313 -131 -21 615 123 hstemhm
          108 86 -75 75 hintmask 11010000
          157 586 rmoveto
          -52 -3 -32 -29 -29 3 -33 52 49 4 33 29 29 -4 32 -49 hvcurveto
          48 -738 rmoveto
          164 vlineto
          -22 375 rlineto
          -53 hlineto
          hintmask 11100000
          -22 -375 rlineto
          -164 vlineto
          endchar
        </CharString>
        <CharString name="f">
          -287 45 callsubr
          135 68 hstem
          122 86 vstem
          -76 callsubr
          endchar
        </CharString>
        <CharString name="fi">
          15 45 callsubr
          96 107 -68 68 4 -20 hstemhm
          122 86 240 86 hintmask 11010110
          -76 callsubr
          84 -121 rmoveto
          -572 86 572 vlineto
          hintmask 11100110
          -43 96 rmoveto
          46 7 29 26 hvcurveto
          hintmask 11001110
          31 callsubr
          vhcurveto
          hintmask 11100110
          -26 7 -29 44 vhcurveto
          endchar
        </CharString>
        <CharString name="five">
          9 -14 70 311 72 220 71 hstem
          123 77 286 87 vstem
          98 191 rmoveto
          -129 8 74 -76 147 hhcurveto
          165 81 101 127 149 -104 76 -229 hvcurveto
          -47 hlineto
          15 220 rlineto
          323 71 -396 hlineto
          -23 -363 rlineto
          120 hlineto
          196 58 -60 -93 -89 -47 -69 -112 -105 -43 56 86 -5 hvcurveto
          endchar
        </CharString>
        <CharString name="fl">
          15 45 callsubr
          135 68 hstem
          122 86 240 86 vstem
          -76 callsubr
          84 65 56 callsubr
        </CharString>
        <CharString name="florin">
          5 -218 76 456 60 299 71 hstem
          246 88 vstem
          562 711 rmoveto
          21 -33 -44 12 -49 hhcurveto
          -130 -60 -71 -154 hvcurveto
          -145 -124 -60 124 -316 vlineto
          -103 -29 -37 -89 vhcurveto
          5 -76 rlineto
          159 42 70 146 hvcurveto
          316 170 60 -170 145 vlineto
          110 42 44 63 37 31 -8 -16 26 vhcurveto
          endchar
        </CharString>
        <CharString name="four">
          9 21 -21 163 71 496 -20 hstem
          394 86 vstem
          480 hmoveto
          163 89 71 -89 496 -126 vlineto
          -322 -497 rlineto
          -70 362 -163 vlineto
          -265 234 rmoveto
          265 414 rlineto
          -414 vlineto
          endchar
        </CharString>
        <CharString name="fraction">
          -354 -45 -21 801 -20 hstem
          -2 44 callsubr
          endchar
        </CharString>
        <CharString name="g">
          -53 -233 69 164 67 113 62 282 48 -48 62 hstemhm
          37 78 -41 83 257 83 -46 88 hintmask 1111010100000000
          285 180 rmoveto
          172 40 108 95 45 -10 49 -28 38 hvcurveto
          71 57 -151 hlineto
          hintmask 1110101100000000
          9 -26 -31 5 -37 hhcurveto
          -171 -40 -108 -95 -53 12 -58 41 -40 hvcurveto
          -48 -48 rlineto
          hintmask 1111010010000000
          -32 -32 -10 -31 -27 vvcurveto
          -42 19 -29 38 -15 vhcurveto
          -36 -26 -24 -40 -41 vvcurveto
          -107 99 -27 139 131 136 19 142 80 -57 59 -99 vhcurveto
          -224 hlineto
          -24 -22 9 28 17 7 18 16 15 hvcurveto
          45 44 rlineto
          -11 28 34 -7 42 hhcurveto
          62 vmoveto
          hintmask 1111001100000000
          -104 -24 67 74 74 24 67 104 104 25 -67 -74 -74 -25 -67 -104 hvcurveto
          -10 -406 rmoveto
          hintmask 1111010010000000
          -92 -68 13 63 32 15 35 26 21 hvcurveto
          200 hlineto
          42 53 -15 -58 -79 -61 -12 -115 hvcurveto
          endchar
        </CharString>
        <CharString name="germandbls">
          17 -14 71 -36 -21 346 65 271 71 hstemhm
          116 86 52 72 145 86 -27 86 hintmask 10111101
          616 195 rmoveto
          hintmask 01111110
          113 -59 68 -86 17 vhcurveto
          51 36 35 60 68 vvcurveto
          118 -73 78 -147 -139 -82 -74 -126 vhcurveto
          -553 86 553 vlineto
          80 45 49 87 94 43 -49 -79 -71 -34 -72 -76 vhcurveto
          -64 -65 111 hlineto
          hintmask 10111101
          95 27 -61 -86 -73 -26 -69 -77 -79 -22 46 80 hvcurveto
          -72 hlineto
          -126 48 -71 126 134 54 95 114 vhcurveto
          endchar
        </CharString>
        <CharString name="grave">
          -315 41 callsubr
          264 671 -86 callsubr
        </CharString>
        <CharString name="greater">
          63 callsubr
          491 360 -5 callsubr
          endchar
        </CharString>
        <CharString name="greaterequal">
          -45 0 68 531 -20 hstem
          89 402 vstem
          491 430 -5 callsubr
          -399 -344 rmoveto
          -8 callsubr
          endchar
        </CharString>
        <CharString name="guillemotleft">
          -101 -28 callsubr
          341 155 -42 callsubr
          endchar
        </CharString>
        <CharString name="guillemotright">
          -101 23 callsubr
          249 160 -41 callsubr
          -341 -155 -41 callsubr
          endchar
        </CharString>
        <CharString name="guilsinglleft">
          -320 -28 callsubr
          endchar
        </CharString>
        <CharString name="guilsinglright">
          -320 23 callsubr
          54 160 -41 callsubr
          endchar
        </CharString>
        <CharString name="h">
          29 21 -2 callsubr
          182 -20 hstem
          106 86 280 86 vstem
          192 768 rmoveto
          -86 -10 rlineto
          -758 86 449 vlineto
          -47 callsubr
          -75 -71 -31 -36 -51 vhcurveto
          endchar
        </CharString>
        <CharString name="hungarumlaut">
          -82 41 callsubr
          79 625 -90 callsubr
          282 -46 -91 callsubr
        </CharString>
        <CharString name="hyphen">
          -137 29 callsubr
          352 68 -352 hlineto
          endchar
        </CharString>
        <CharString name="i">
          -7 callsubr
          116 111 -58 callsubr
          -43 96 7 callsubr
        </CharString>
        <CharString name="iacute">
          -7 callsubr
          275 -20 -58 callsubr
          -98 53 -91 callsubr
        </CharString>
        <CharString name="icircumflex">
          -7 callsubr
          269 -20 -58 callsubr
          -169 60 -95 callsubr
        </CharString>
        <CharString name="idieresis">
          -7 callsubr
          115 113 -58 callsubr
          -150 95 -107 callsubr
        </CharString>
        <CharString name="igrave">
          -7 callsubr
          275 -20 -58 callsubr
          56 99 -86 callsubr
        </CharString>
        <CharString name="infinity">
          4 145 71 205 71 hstem
          36 66 425 66 vstem
          191 492 rmoveto
          -94 -61 -36 -138 -137 61 -36 94 65 38 19 46 23 hvcurveto
          -44 22 37 -21 62 hhcurveto
          94 61 36 137 138 -61 36 -94 -66 -38 -20 -46 -22 hvcurveto
          44 -23 -36 22 -62 hhcurveto
          156 -154 rmoveto
          60 10 23 23 53 hhcurveto
          57 37 -21 -82 -81 -37 -21 -57 -50 -31 28 49 -12 hvcurveto
          -59 1 rmoveto
          -55 -10 -22 -23 -53 hhcurveto
          -57 -37 21 81 82 37 21 57 50 31 -29 -49 12 hvcurveto
          endchar
        </CharString>
        <CharString name="integral">
          -137 -261 71 863 71 hstem
          199 88 vstem
          199 -37 rmoveto
          -109 -42 -44 -64 -37 -30 7 17 -27 vhcurveto
          -28 -62 rlineto
          -21 32 45 -12 48 hhcurveto
          131 60 71 153 hvcurveto
          556 vlineto
          110 43 44 63 38 30 -8 -16 27 vhcurveto
          28 62 rlineto
          21 -33 -45 12 -47 hhcurveto
          -131 -61 -71 -154 hvcurveto
          endchar
        </CharString>
        <CharString name="j">
          -226 68 27 callsubr
          116 111 14 callsubr
          -71 -208 rmoveto
          -13 33 32 -5 40 hhcurveto
          82 76 33 126 hvcurveto
          639 -86 -639 vlineto
          -63 -25 -28 -53 -34 -22 6 9 -21 vhcurveto
          198 811 7 callsubr
        </CharString>
        <CharString name="k">
          -82 -7 callsubr
          216 65 callsubr
          192 hmoveto
          277 67 vlineto
          191 -277 rlineto
          95 hlineto
          -209 302 191 270 rlineto
          -95 hlineto
          -161 -231 rlineto
          -79 427 hlineto
          -86 -10 rlineto
          -758 vlineto
          endchar
        </CharString>
        <CharString name="l">
          53 callsubr
          106 758 56 callsubr
        </CharString>
        <CharString name="less">
          63 callsubr
          89 274 -4 callsubr
          endchar
        </CharString>
        <CharString name="lessequal">
          -45 0 68 531 -20 hstem
          89 402 vstem
          89 344 -4 callsubr
          3 -430 rmoveto
          -8 callsubr
          endchar
        </CharString>
        <CharString name="logicalnot">
          -45 167 -21 138 68 hstem
          92 70 callsubr
          332 -138 64 206 -396 hlineto
          endchar
        </CharString>
        <CharString name="lozenge">
          -57 -79 -21 870 -20 hstem
          237 770 rmoveto
          -195 -435 195 -435 rlineto
          94 hlineto
          195 435 -195 435 rlineto
          -47 -790 rmoveto
          -155 355 155 355 155 -355 rlineto
          endchar
        </CharString>
        <CharString name="lslash">
          53 callsubr
          20 296 rmoveto
          86 34 rlineto
          -330 86 365 55 callsubr
          342 vlineto
          -86 -12 rlineto
          -365 vlineto
          -86 -34 rlineto
          endchar
        </CharString>
        <CharString name="m">
          361 49 callsubr
          263 86 263 86 cntrmask 00011100
          hintmask 10111100
          159 71 callsubr
          -53 -572 86 453 hlineto
          hintmask 11011100
          43 50 51 20 59 hhcurveto
          76 48 callsubr
          14 -1 14 -2 13 vhcurveto
          46 51 52 22 61 hhcurveto
          75 48 callsubr
          107 -48 72 -126 -78 -73 -39 -40 -44 vhcurveto
          49 -25 -49 30 -82 hhcurveto
          -72 -68 -34 -37 -44 hvcurveto
          endchar
        </CharString>
        <CharString name="macron">
          -271 688 73 hstem
          48 688 rmoveto
          258 73 -258 hlineto
          endchar
        </CharString>
        <CharString name="minus">
          -45 284 68 hstem
          92 70 callsubr
          -8 callsubr
          endchar
        </CharString>
        <CharString name="mu">
          12 -206 -21 213 70 516 -20 hstem
          114 86 292 86 vstem
          200 -227 rmoveto
          286 vlineto
          -38 52 75 -35 80 hhcurveto
          130 41 62 116 hvcurveto
          408 -86 -402 vlineto
          -80 -27 -34 -81 -76 -62 35 39 -46 vhcurveto
          442 -86 -799 vlineto
          endchar
        </CharString>
        <CharString name="multiply">
          -45 158 -21 362 -20 hstem
          156 137 rmoveto
          134 133 134 -133 47 47 -133 134 133 134 -47 47 -134 -133 -134 133 -47 -47 133 -134 -133 -134 rlineto
          endchar
        </CharString>
        <CharString name="n">
          29 49 callsubr
          280 86 hintmask 10111000
          25 callsubr
          449 hlineto
          hintmask 11011000
          -18 callsubr
          endchar
        </CharString>
        <CharString name="nbspace">
          -335 endchar
        </CharString>
        <CharString name="nine">
          9 -14 70 245 69 303 71 hstem
          58 84 326 85 vstem
          67 183 rmoveto
          -124 8 75 -73 148 hhcurveto
          205 50 165 222 231 -57 140 -184 -166 -88 -103 -130 -105 54 -105 189 56 55 8 16 55 hvcurveto
          -192 -7 -49 -77 -114 hhcurveto
          -97 -54 49 87 -4 hvcurveto
          167 178 rmoveto
          -126 -39 78 66 90 55 69 112 113 42 -82 -201 2 hvcurveto
          -15 -59 -40 -5 -60 hhcurveto
          endchar
        </CharString>
        <CharString name="notequal">
          -45 -45 -21 248 68 136 68 281 -20 hstem
          84 386 rmoveto
          190 hlineto
          -37 -136 rlineto
          -153 -68 135 hlineto
          -66 -248 rlineto
          60 hlineto
          66 248 rlineto
          201 68 -182 hlineto
          36 136 rlineto
          146 68 -128 hlineto
          76 281 rlineto
          -61 hlineto
          -75 -281 rlineto
          -208 hlineto
          endchar
        </CharString>
        <CharString name="ntilde">
          29 21 -2 callsubr
          -14 -20 121 4 callsubr
          106 86 280 86 hintmask 10110111
          25 callsubr
          449 hlineto
          hintmask 11010111
          -18 callsubr
          hintmask 10110111
          234 161 -77 callsubr
          hintmask 11001011
          -82 callsubr
          hintmask 11010111
          -12 callsubr
        </CharString>
        <CharString name="numbersign">
          175 -55 -21 250 70 241 70 250 -20 hstem
          432 -76 rmoveto
          87 hlineto
          45 250 rlineto
          113 hlineto
          12 70 rlineto
          -112 hlineto
          44 241 rlineto
          111 hlineto
          12 70 rlineto
          -111 43 callsubr
          -223 43 callsubr
          -113 hlineto
          -12 -70 rlineto
          113 hlineto
          -44 -241 rlineto
          -112 hlineto
          -12 -70 rlineto
          111 hlineto
          -45 -250 rlineto
          87 hlineto
          45 250 rlineto
          223 hlineto
          -166 311 rmoveto
          223 hlineto
          -44 -241 rlineto
          -223 hlineto
          endchar
        </CharString>
        <CharString name="o">
          5 callsubr
          -101 callsubr
          endchar
        </CharString>
        <CharString name="oacute">
          -71 callsubr
          -33 639 -91 callsubr
        </CharString>
        <CharString name="ocircumflex">
          5 callsubr
          235 -20 -101 callsubr
          -117 646 -95 callsubr
        </CharString>
        <CharString name="odieresis">
          5 callsubr
          81 113 -101 callsubr
          -107 681 -107 callsubr
        </CharString>
        <CharString name="oe">
          364 54 callsubr
          10 callsubr
          vstem
          708 -57 callsubr
          -67 -7 -38 -48 -107 hhcurveto
          -117 -39 72 149 -2 -56 callsubr
          -103 -60 -42 -62 -35 vhcurveto
          62 -35 -62 42 -107 hhcurveto
          -68 callsubr
          105 62 40 61 36 hvcurveto
          -66 36 64 -35 103 hhcurveto
          -406 70 -69 callsubr
          143 19 -120 -122 -114 -29 -104 -133 hvcurveto
          401 460 72 callsubr
          30 -76 -99 6 hvcurveto
          -302 hlineto
          97 8 33 78 110 hhcurveto
          endchar
        </CharString>
        <CharString name="ogonek">
          -297 -221 56 208 -20 hstem
          241 -106 rmoveto
          -29 -17 -29 -30 -42 hhcurveto
          -32 -14 18 28 30 17 18 46 29 hvcurveto
          82 50 -24 35 -91 -56 rlineto
          -51 -31 -42 -28 -59 vvcurveto
          -51 30 -39 71 68 44 44 45 25 vhcurveto
          endchar
        </CharString>
        <CharString name="ograve">
          -71 callsubr
          109 685 -86 callsubr
        </CharString>
        <CharString name="one">
          9 0 71 659 -20 hstem
          293 88 vstem
          146 621 rmoveto
          147 -550 -151 -71 391 71 -152 659 -65 hlineto
          -38 -27 -59 -20 -73 -8 rrcurveto
          endchar
        </CharString>
        <CharString name="onehalf">
          355 -15 -21 36 61 292 61 317 -20 54 -20 hstem
          175 79 vstem
          333 -36 -44 callsubr
          136 -468 -49 callsubr
          -523 351 -26 callsubr
          endchar
        </CharString>
        <CharString name="onequarter">
          355 -15 -21 57 -21 79 60 592 -20 54 -20 hstem
          175 79 528 72 vstem
          -31 callsubr
          -689 516 -26 callsubr
          248 -737 -44 callsubr
          endchar
        </CharString>
        <CharString name="onesuperior">
          -234 361 -21 405 -20 hstem
          168 79 vstem
          86 669 -26 callsubr
          endchar
        </CharString>
        <CharString name="ordfeminine">
          -192 228 51 61 58 301 61 hstemhm
          44 317 -78 78 hintmask 11101000
          129 631 rmoveto
          45 8 30 23 44 hhcurveto
          38 34 -14 -65 hvcurveto
          -36 vlineto
          -93 -15 rlineto
          hintmask 11110000
          -120 -19 -26 -44 -60 vvcurveto
          -60 31 -46 75 64 47 36 29 28 vhcurveto
          21 -55 rlineto
          51 270 hlineto
          115 -69 25 -78 -85 -46 -41 -69 -15 vhcurveto
          105 -252 rmoveto
          -37 -15 22 29 29 12 29 68 12 hvcurveto
          hintmask 11101000
          82 14 rlineto
          -78 vlineto
          -29 -28 -35 -28 -47 hhcurveto
          -137 -170 rmoveto
          336 51 -336 hlineto
          endchar
        </CharString>
        <CharString name="ordmasculine">
          -204 228 51 61 62 297 61 hstem
          32 79 199 79 vstem
          42 228 rmoveto
          336 51 -336 hlineto
          168 123 rmoveto
          -85 -14 67 81 81 14 68 85 86 14 -68 -81 -81 -14 -67 -86 hvcurveto
          -62 vmoveto
          145 34 102 108 109 -34 101 -145 -144 -34 -101 -109 -108 34 -102 144 hvcurveto
          endchar
        </CharString>
        <CharString name="oslash">
          -21 -94 -21 101 6 callsubr
          100 -20 -13 callsubr
          165 -115 rmoveto
          60 hlineto
          28 104 rlineto
          -2 15 16 -1 18 hhcurveto
          201 47 13 callsubr
          122 -30 117 -112 43 hvcurveto
          32 118 rlineto
          -61 hlineto
          -28 -104 rlineto
          2 -15 -17 2 -17 hhcurveto
          -201 -47 -22 callsubr
          -123 29 -117 113 -43 hvcurveto
          -56 283 rmoveto
          118 23 112 139 11 10 -1 -2 10 vhcurveto
          -117 -437 rlineto
          -64 38 -12 84 88 vvcurveto
          162 -230 rmoveto
          -11 -10 0 2 -10 hvcurveto
          117 437 rlineto
          63 -38 13 -84 -87 vvcurveto
          -118 -24 -112 -138 vhcurveto
          endchar
        </CharString>
        <CharString name="otilde">
          5 callsubr
          87 4 callsubr
          10 callsubr
          hintmask 11101110
          -104 callsubr
          73 687 -78 callsubr
        </CharString>
        <CharString name="p">
          37 callsubr
          106 69 callsubr
          hintmask 11011100
          157 71 callsubr
          -51 -806 hlineto
          86 12 rlineto
          239 vlineto
          -17 46 55 -14 56 hhcurveto
          181 43 13 callsubr
          hvcurveto
          hintmask 11101100
          155 -43 145 -173 -64 -67 -28 -36 -49 vhcurveto
          hintmask 11011100
          hintmask 11101100
          164 -6 rmoveto
          111 35 -113 -117 -131 -35 -99 -119 -40 -46 3 23 -55 hvcurveto
          383 vlineto
          34 47 54 17 48 hhcurveto
          endchar
        </CharString>
        <CharString name="paragraph">
          -130 21 -21 670 -20 hstemhm
          26 343 vstemhm
          369 hmoveto
          670 -145 vlineto
          -143 -55 -94 -101 -100 55 -94 143 hvcurveto
          hintmask 11100000
          57 -281 hlineto
          endchar
        </CharString>
        <CharString name="parenleft">
          62 callsubr
          58 93 vstem
          294 4 rmoveto
          -129 -14 163 168 167 14 163 129 hvcurveto
          70 vlineto
          -211 -25 -199 -201 -203 25 -198 211 hvcurveto
          endchar
        </CharString>
        <CharString name="parenright">
          62 callsubr
          149 93 vstem
          6 665 rmoveto
          129 14 -163 -168 -167 -14 -163 -129 hvcurveto
          -70 vlineto
          211 25 199 201 203 -25 198 -211 hvcurveto
          endchar
        </CharString>
        <CharString name="partialdiff">
          -14 46 callsubr
          87 324 92 vstem
          557 373 rmoveto
          212 -83 122 -53 57 vhcurveto
          -51 -50 52 -60 45 -79 8 -124 rlinecurve
          32 -23 -36 23 -68 hhcurveto
          -215 -79 -125 -213 -98 41 -84 163 215 84 125 262 hvcurveto
          -287 -318 rmoveto
          -104 -25 60 65 160 50 97 146 103 25 -60 -65 -160 -50 -97 -145 hvcurveto
          endchar
        </CharString>
        <CharString name="percent">
          355 -11 callsubr
          hintmask 1101011111000000
          38 callsubr
          198 -743 -89 callsubr
          hintmask 1110101111000000
          -551 266 -89 callsubr
          endchar
        </CharString>
        <CharString name="period">
          -397 -8 123 hstem
          113 15 callsubr
          endchar
        </CharString>
        <CharString name="periodcentered">
          -397 257 123 hstem
          113 257 rmoveto
          16 callsubr
        </CharString>
        <CharString name="perthousand">
          747 -11 callsubr
          97 77 149 77 hintmask 1101011111110000
          38 callsubr
          598 -743 -89 callsubr
          hintmask 1110101111110000
          -951 266 -89 callsubr
          551 -386 rmoveto
          123 28 93 118 hvcurveto
          hintmask 1101101111110000
          -64 callsubr
          vhcurveto
          -66 callsubr
          endchar
        </CharString>
        <CharString name="pi">
          14 45 callsubr
          hstem
          124 86 219 86 vstem
          64 513 rmoveto
          60 34 callsubr
          219 34 callsubr
          60 59 -511 hlineto
          endchar
        </CharString>
        <CharString name="plus">
          -45 141 -21 164 47 callsubr
          70 callsubr
          164 -164 68 164 164 68 -164 164 -68 -164 -164 hlineto
          endchar
        </CharString>
        <CharString name="plusminus">
          -45 0 68 266 47 callsubr
          334 rmoveto
          164 -164 68 164 164 68 -164 164 -68 -164 -164 hlineto
          -402 vmoveto
          -8 callsubr
          endchar
        </CharString>
        <CharString name="product">
          122 -169 -21 860 60 hstem
          137 86 301 86 vstem
          72 670 rmoveto
          65 -860 86 860 301 -860 86 860 65 60 -603 hlineto
          endchar
        </CharString>
        <CharString name="q">
          37 callsubr
          54 69 callsubr
          hintmask 11101100
          277 586 rmoveto
          -181 -42 -22 callsubr
          -155 42 -145 181 54 57 16 21 47 hvcurveto
          -257 vlineto
          86 12 rlineto
          hintmask 11011100
          794 -52 vlineto
          -17 -42 rlineto
          hintmask 11101100
          30 -41 -60 26 -74 hhcurveto
          17 -530 rmoveto
          -115 -39 96 134 133 41 97 113 50 47 -11 -32 44 hvcurveto
          -384 vlineto
          -22 -45 -47 -11 -49 hhcurveto
          endchar
        </CharString>
        <CharString name="question">
          -145 -8 123 562 67 hstem
          370 84 vstem
          219 -8 rmoveto
          51 4 32 29 29 -4 33 -51 -62 callsubr
          -109 589 rmoveto
          56 11 37 40 78 hhcurveto
          95 39 -76 -68 -89 -57 -58 -129 -43 hvcurveto
          8 -152 rlineto
          55 hlineto
          11 122 rlineto
          107 37 89 66 119 vvcurveto
          106 -70 103 -147 -119 -67 -61 -92 -15 vhcurveto
          endchar
        </CharString>
        <CharString name="questiondown">
          -145 -166 67 562 123 hstem
          36 84 vstem
          271 586 rmoveto
          -51 -4 -32 -29 -29 4 -33 51 50 3 33 29 29 -3 32 -50 hvcurveto
          109 -589 rmoveto
          -56 -11 -37 -40 -78 hhcurveto
          -95 -39 76 68 89 57 58 129 43 hvcurveto
          -8 152 rlineto
          -55 hlineto
          -11 -122 rlineto
          -107 -37 -89 -66 -119 vvcurveto
          -106 70 -103 147 119 67 61 92 15 vhcurveto
          endchar
        </CharString>
        <CharString name="quotedbl">
          -221 506 12 callsubr
          240 -33 callsubr
          -10 callsubr
          -260 hmoveto
          -10 callsubr
          endchar
        </CharString>
        <CharString name="quotedblbase">
          -236 -104 12 callsubr
          223 57 -61 callsubr
        </CharString>
        <CharString name="quotedblleft">
          -181 559 12 callsubr
          180 601 rmoveto
          31 -13 20 22 vvcurveto
          39 18 20 23 20 vhcurveto
          -27 24 callsubr
          4 -33 50 48 4 33 30 vhcurveto
          163 hmoveto
          -27 callsubr
        </CharString>
        <CharString name="quotedblright">
          -181 559 12 callsubr
          264 720 -61 callsubr
        </CharString>
        <CharString name="quoteleft">
          -344 559 12 callsubr
          180 601 rmoveto
          -27 callsubr
        </CharString>
        <CharString name="quoteright">
          -350 559 12 callsubr
          101 720 rmoveto
          -53 callsubr
        </CharString>
        <CharString name="quotesinglbase">
          -45 callsubr
        </CharString>
        <CharString name="quotesingle">
          -389 506 12 callsubr
          72 -33 callsubr
          -10 callsubr
          endchar
        </CharString>
        <CharString name="r">
          -224 21 -21 507 79 -14 -20 hstemhm
          106 86 hintmask 10110000
          25 callsubr
          393 hlineto
          hintmask 11010000
          36 59 60 51 105 4 rrcurveto
          79 vlineto
          -109 -4 -59 -53 -37 -59 rrcurveto
          endchar
        </CharString>
        <CharString name="radical">
          -72 21 -21 671 59 hstem
          260 hmoveto
          208 671 rlineto
          137 59 -205 hlineto
          -191 -627 -124 334 52 callsubr
          168 -437 rlineto
          endchar
        </CharString>
        <CharString name="registered">
          104 261 49 406 46 49 49 hstem
          65 54 126 58 135 58 114 54 vstem
          65 560 -51 callsubr
          126 202 rmoveto
          -402 58 163 42 vlineto
          25 15 -8 -25 10 hvcurveto
          56 -130 rlineto
          62 hlineto
          -60 136 -7 16 -8 11 -9 8 rlinecurve
          59 17 8 55 40 vvcurveto
          49 -12 70 -114 vhcurveto
          -67 -194 rmoveto
          148 66 vlineto
          61 8 -40 -34 -33 -8 -41 -61 hvcurveto
          endchar
        </CharString>
        <CharString name="ring">
          -355 621 47 114 48 hstem
          32 206 vstem
          134 668 -40 callsubr
        </CharString>
        <CharString name="s">
          -93 -11 68 461 68 hstem
          65 86 243 86 vstem
          255 -74 callsubr
          endchar
        </CharString>
        <CharString name="scaron">
          -85 -11 68 461 68 233 -20 hstem
          69 86 243 86 vstem
          259 -74 callsubr
          101 500 -75 callsubr
        </CharString>
        <CharString name="section">
          -134 -280 -21 1119 -20 hstemhm
          36 87 -15 87 101 87 -15 87 hintmask 11011000
          247 525 rmoveto
          -37 44 -15 27 42 vvcurveto
          63 69 36 55 14 vhcurveto
          -18 67 rlineto
          -108 -28 -85 -67 -97 vvcurveto
          -44 19 -46 39 -51 vhcurveto
          hintmask 11101000
          -80 -31 -50 -51 -91 vvcurveto
          -49 24 -52 49 -58 vhcurveto
          133 -159 rlineto
          39 -46 15 -28 -42 vvcurveto
          -63 -69 -36 -55 -14 vhcurveto
          18 -66 rlineto
          108 27 85 68 96 vvcurveto
          44 -18 47 -40 51 vhcurveto
          hintmask 11100100
          80 30 50 52 90 vvcurveto
          49 -23 52 -50 59 vhcurveto
          -207 -153 rmoveto
          -37 44 -15 25 50 vvcurveto
          50 43 33 46 17 vhcurveto
          102 -122 rlineto
          39 -46 15 -26 -49 vvcurveto
          -51 -44 -33 -45 -16 vhcurveto
          endchar
        </CharString>
        <CharString name="semicolon">
          -399 -103 -21 531 123 hstem
          60 106 vstem
          -59 callsubr
          52 351 rmoveto
          16 callsubr
        </CharString>
        <CharString name="seven">
          9 21 -21 659 71 hstem
          268 hmoveto
          286 664 rlineto
          66 -473 -71 379 vlineto
          -286 -659 rlineto
          endchar
        </CharString>
        <CharString name="six">
          9 -14 70 297 67 253 71 hstemhm
          81 86 322 75 -75 92 hintmask 11111000
          564 544 rmoveto
          133 -8 -77 67 -149 hhcurveto
          -192 -57 -167 -238 -215 68 -138 190 hvcurveto
          hintmask 11110100
          163 78 91 142 1 hvcurveto
          112 -59 89 -186 -46 -62 -8 -18 -61 vhcurveto
          159 4 31 120 130 hhcurveto
          98 54 -42 -95 5 hvcurveto
          hintmask 11111000
          -159 -183 rmoveto
          123 42 -61 -73 -100 -46 -63 -114 -116 -47 81 191 -5 hvcurveto
          17 56 44 8 63 hhcurveto
          endchar
        </CharString>
        <CharString name="slash">
          -305 32 callsubr
          -2 -106 rmoveto
          87 hlineto
          237 881 52 callsubr
          endchar
        </CharString>
        <CharString name="space">
          -335 endchar
        </CharString>
        <CharString name="sterling">
          5 0 71 243 61 298 71 hstem
          139 88 260 76 vstem
          68 314 rmoveto
          71 -132 hlineto
          -38 -9 -41 -45 -38 vhcurveto
          -65 495 71 -402 vlineto
          38 30 11 30 63 vvcurveto
          120 252 61 -252 155 vlineto
          90 23 53 103 94 40 -46 -102 vhcurveto
          76 5 rlineto
          142 -57 72 -158 -157 -52 -80 -134 vhcurveto
          -155 -71 vlineto
          endchar
        </CharString>
        <CharString name="summation">
          -24 -190 61 799 60 hstem
          51 670 rmoveto
          257 -399 -257 -400 rlineto
          -61 510 61 -415 vlineto
          254 400 -257 399 rlineto
          418 60 -510 hlineto
          endchar
        </CharString>
        <CharString name="t">
          -280 -14 66 461 59 138 -20 hstem
          119 86 vstem
          21 513 rmoveto
          98 -382 hlineto
          -70 7 -75 105 24 31 5 11 37 vhcurveto
          -10 58 rlineto
          -5 -22 -17 -3 -15 hhcurveto
          -39 -15 21 61 hvcurveto
          379 121 59 -121 138 vlineto
          -86 -34 rlineto
          -104 -98 vlineto
          endchar
        </CharString>
        <CharString name="thorn">
          4 -201 -21 208 74 452 74 162 -20 hstem
          106 86 297 86 vstem
          192 748 rmoveto
          -86 -18 rlineto
          -952 86 242 vlineto
          -19 45 55 -15 61 hhcurveto
          180 42 13 callsubr
          155 -42 145 -180 -60 -59 -28 -33 -42 hvcurveto
          152 -13 rmoveto
          118 27 -111 -115 -131 -35 -95 -110 -40 -54 4 25 -58 hvcurveto
          361 vlineto
          42 47 51 20 54 hhcurveto
          endchar
        </CharString>
        <CharString name="three">
          9 -14 71 271 66 279 71 hstem
          460 95 vstem
          71 165 rmoveto
          -114 12 75 -65 149 hhcurveto
          153 95 72 125 96 -50 59 -71 26 hvcurveto
          65 30 47 59 79 vvcurveto
          128 -79 84 -160 -138 -76 -71 -119 -9 vhcurveto
          75 -10 rlineto
          79 6 49 50 92 hhcurveto
          108 46 -56 -84 -79 -47 -60 -92 hvcurveto
          -92 -66 91 hlineto
          107 43 -59 -85 -81 -57 -46 -107 -97 -53 44 73 -9 hvcurveto
          endchar
        </CharString>
        <CharString name="threequarters">
          355 -15 -21 57 -21 79 60 179 58 127 47 130 60 25 -20 hstemhm
          68 279 -81 81 435 72 hintmask 1111111101000000
          -31 callsubr
          -722 289 -46 callsubr
          hintmask 1111111011000000
          -14 callsubr
          235 -473 -44 callsubr
          endchar
        </CharString>
        <CharString name="threesuperior">
          -234 332 58 127 47 130 60 hstemhm
          61 279 -81 81 hintmask 11110000
          53 442 -46 callsubr
          hintmask 11101000
          -14 callsubr
          endchar
        </CharString>
        <CharString name="tilde">
          -219 673 73 -60 -21 44 73 8 -20 hstemhm
          hintmask 10010000
          276 673 -77 callsubr
          hintmask 01100000
          -82 callsubr
          hintmask 10010000
          -12 callsubr
        </CharString>
        <CharString name="trademark">
          343 309 -21 383 59 hstem
          182 68 192 68 279 69 vstem
          761 -33 callsubr
          -115 -313 -106 313 rlineto
          -98 -442 68 341 hlineto
          103 -295 rlineto
          64 hlineto
          112 297 rlineto
          -343 69 442 vlineto
          -788 -59 rmoveto
          112 -383 68 383 112 59 -292 hlineto
          endchar
        </CharString>
        <CharString name="two">
          9 0 71 602 71 hstem
          459 86 vstem
          171 545 rmoveto
          78 5 40 50 101 hhcurveto
          99 43 -51 -72 -69 -42 -50 -55 -59 hvcurveto
          -282 -305 rlineto
          -67 473 71 -356 vlineto
          221 237 rlineto
          66 71 61 77 92 vvcurveto
          118 -75 78 -151 -142 -72 -71 -116 -10 vhcurveto
          endchar
        </CharString>
        <CharString name="twosuperior">
          -234 340 61 292 61 hstem
          125 637 -49 callsubr
          endchar
        </CharString>
        <CharString name="u">
          -9 callsubr
          hstemhm
          96 86 286 86 hintmask 01111000
          -29 callsubr
          hintmask 10111000
          -84 callsubr
          endchar
        </CharString>
        <CharString name="uacute">
          -60 callsubr
          -164 540 -91 callsubr
        </CharString>
        <CharString name="ucircumflex">
          -9 callsubr
          269 42 callsubr
          hintmask 01111100
          -29 callsubr
          hintmask 10111100
          -84 callsubr
          hintmask 01111100
          -251 547 -95 callsubr
        </CharString>
        <CharString name="udieresis">
          -9 callsubr
          115 113 19 callsubr
          hintmask 01111100
          -29 callsubr
          hintmask 10111100
          -84 callsubr
          hintmask 01111100
          -242 582 -107 callsubr
        </CharString>
        <CharString name="ugrave">
          -60 callsubr
          -56 586 -86 callsubr
        </CharString>
        <CharString name="underscore">
          -49 -68 68 hstem
          68 -68 rmoveto
          440 68 -440 hlineto
          endchar
        </CharString>
        <CharString name="v">
          -93 51 callsubr
          313 hmoveto
          203 572 52 callsubr
          -163 -472 -163 472 52 callsubr
          203 -572 rlineto
          endchar
        </CharString>
        <CharString name="w">
          120 51 callsubr
          256 hmoveto
          116 400 118 -400 rlineto
          88 hlineto
          146 572 52 callsubr
          -110 -462 -118 412 rlineto
          -74 hlineto
          -117 -412 -110 462 52 callsubr
          146 -572 rlineto
          endchar
        </CharString>
        <CharString name="x">
          -120 51 callsubr
          99 hmoveto
          150 227 152 -227 rlineto
          96 hlineto
          -195 291 185 281 rlineto
          -91 hlineto
          -140 -213 -142 213 rlineto
          -96 hlineto
          186 -278 -196 -294 rlineto
          endchar
        </CharString>
        <CharString name="y">
          -82 67 callsubr
          -20 hstem
          -55 callsubr
          endchar
        </CharString>
        <CharString name="yacute">
          -83 67 callsubr
          -20 275 -20 hstem
          -55 callsubr
          86 856 -91 callsubr
        </CharString>
        <CharString name="ydieresis">
          -83 67 callsubr
          95 0 113 hstemhm
          hintmask 11000000
          -55 callsubr
          37 898 rmoveto
          49 2 29 27 hvcurveto
          hintmask 10100000
          -99 callsubr
          vhcurveto
          212 hmoveto
          -106 callsubr
          endchar
        </CharString>
        <CharString name="yen">
          5 21 -21 241 61 85 60 283 -20 hstem
          272 86 vstem
          81 387 rmoveto
          146 hlineto
          44 -85 rlineto
          -190 -61 191 -241 86 241 193 61 -192 hlineto
          44 85 rlineto
          148 60 -117 hlineto
          147 283 rlineto
          -91 hlineto
          -175 -348 -174 348 rlineto
          -92 hlineto
          147 -283 rlineto
          -115 hlineto
          endchar
        </CharString>
        <CharString name="z">
          -105 0 66 440 66 -21 callsubr
          endchar
        </CharString>
        <CharString name="zcaron">
          -105 0 66 440 66 247 -20 -21 callsubr
          346 247 -75 callsubr
        </CharString>
        <CharString name="zero">
          9 -14 70 617 71 hstem
          60 86 342 85 vstem
          316 -14 rmoveto
          210 47 172 207 206 -47 173 -210 -209 -47 -173 -206 -207 47 -172 209 hvcurveto
          70 vmoveto
          -137 -33 127 182 181 33 127 137 138 34 -127 -181 -182 -34 -127 -138 hvcurveto
          endchar
        </CharString>
</ttFont>
